<svg width="63" height="62" viewBox="0 0 63 62" fill="none" xmlns="http://www.w3.org/2000/svg">
<path d="M51.5522 51.1262H6.92765C3.94912 51.1262 1.53418 48.7113 1.53418 45.7327V12.5066C1.53418 11.3145 2.4997 10.349 3.6918 10.349H7.41155M55.5658 10.349H59.2867C60.4788 10.349 61.4443 11.3145 61.4443 12.5066V46.1142M1.53418 42.4195H40.1458M55.1228 28.9477V6.10995M7.85548 6.10995V32.1539C7.85548 35.4945 10.5562 38.2055 13.8968 38.218L40.1469 38.3091M22.6742 15.46H15.8917M47.0422 15.46H40.2596M22.6742 19.7365H15.8917M47.0422 19.7365H40.2596M22.6742 24.012H15.8917M47.0422 24.012H40.2596M47.0422 28.9477H40.2596M34.9118 15.46H28.1292M34.9118 19.7365H28.1292M34.9118 24.012H28.1292M34.9118 28.9477H28.1292M22.6742 28.2884H15.8917M11.4683 10.349H51.5522M39.4136 3.93981H23.6067M51.5523 28.9477V7.65615C51.5523 5.60442 49.7578 3.93981 47.5433 3.93981H43.6505M19.369 3.93981H15.4762C13.2628 3.93981 11.4672 5.60328 11.4672 7.65615V30.6316C11.4672 32.6834 12.4156 34.348 14.6291 34.348H40.1447M59.6005 48.2011L55.5995 51.3687M58.0793 46.2792L54.0772 49.4456M51.6179 38.76L48.1817 41.3606M48.6407 46.9897H45.1931C43.9657 46.9897 42.9706 45.9945 42.9706 44.7671V34.7863C42.9706 33.5589 43.9657 32.5638 45.1931 32.5638H55.1739C56.4013 32.5638 57.3965 33.5589 57.3965 34.7863V41.4846M22.1585 61V59.2067C22.1585 57.7402 23.4804 56.5516 25.112 56.5516H37.8653C39.4969 56.5516 40.8188 57.7402 40.8188 59.2067V61H22.1574H22.1585ZM29.8688 56.5516V51.1262H33.1104V56.5516H29.8688ZM39.4137 1H43.6515V6.87965H39.4137V1ZM19.369 1H23.6068V6.87965H19.369V1ZM47.4802 41.1101L46.928 36.3018L51.4812 37.9436L61.7991 50.9793L57.7981 54.1457L47.4802 41.1101Z" stroke="#C00404" stroke-width="1.5" stroke-linecap="round" stroke-linejoin="round"/>
</svg>
