<svg width="63" height="63" viewBox="0 0 63 63" fill="none" xmlns="http://www.w3.org/2000/svg">
<path d="M55.4105 11.0837H59.1314C60.3235 11.0837 61.289 12.0493 61.289 13.2414V46.4676C61.289 49.4461 58.874 51.861 55.8955 51.861H6.77238C3.79385 51.861 1.37891 49.4461 1.37891 46.4676V13.2414C1.37891 12.0493 2.34443 11.0837 3.53653 11.0837H7.25628" stroke="#C00404" stroke-width="1.5" stroke-linecap="round" stroke-linejoin="round"/>
<path d="M22.0031 61.7348V59.9416C22.0031 58.4751 23.325 57.2864 24.9566 57.2864H37.7099C39.3415 57.2864 40.6634 58.4751 40.6634 59.9416V61.7348H22.002H22.0031Z" stroke="#C00404" stroke-width="1.5" stroke-linecap="round" stroke-linejoin="round"/>
<path d="M59.1533 43.1543H61.2882" stroke="#C00404" stroke-width="1.5" stroke-linecap="round" stroke-linejoin="round"/>
<path d="M1.37891 43.1543H37.414" stroke="#C00404" stroke-width="1.5" stroke-linecap="round" stroke-linejoin="round"/>
<path d="M29.7139 51.861V57.2864H32.9554V51.861H29.7139Z" stroke="#C00404" stroke-width="1.5" stroke-linecap="round" stroke-linejoin="round"/>
<path d="M54.9678 30.3895V6.84473" stroke="#C00404" stroke-width="1.5" stroke-linecap="round" stroke-linejoin="round"/>
<path d="M7.7002 6.84473V32.8887C7.7002 36.2293 10.4009 38.9403 13.7415 38.9528L37.415 39.0439" stroke="#C00404" stroke-width="1.5" stroke-linecap="round" stroke-linejoin="round"/>
<path d="M22.5189 16.1948H15.7363" stroke="#C00404" stroke-width="1.5" stroke-linecap="round" stroke-linejoin="round"/>
<path d="M34.7025 16.1948H27.9199" stroke="#C00404" stroke-width="1.5" stroke-linecap="round" stroke-linejoin="round"/>
<path d="M46.887 16.1948H40.1045" stroke="#C00404" stroke-width="1.5" stroke-linecap="round" stroke-linejoin="round"/>
<path d="M22.5189 20.4714H15.7363" stroke="#C00404" stroke-width="1.5" stroke-linecap="round" stroke-linejoin="round"/>
<path d="M34.7025 20.4714H27.9199" stroke="#C00404" stroke-width="1.5" stroke-linecap="round" stroke-linejoin="round"/>
<path d="M46.887 20.4714H40.1045" stroke="#C00404" stroke-width="1.5" stroke-linecap="round" stroke-linejoin="round"/>
<path d="M22.5189 24.7468H15.7363" stroke="#C00404" stroke-width="1.5" stroke-linecap="round" stroke-linejoin="round"/>
<path d="M34.7025 24.7468H27.9199" stroke="#C00404" stroke-width="1.5" stroke-linecap="round" stroke-linejoin="round"/>
<path d="M46.887 24.7468H40.1045" stroke="#C00404" stroke-width="1.5" stroke-linecap="round" stroke-linejoin="round"/>
<path d="M22.5189 29.0234H15.7363" stroke="#C00404" stroke-width="1.5" stroke-linecap="round" stroke-linejoin="round"/>
<path d="M34.7025 29.0234H27.9199" stroke="#C00404" stroke-width="1.5" stroke-linecap="round" stroke-linejoin="round"/>
<path d="M46.887 29.0234H40.1045" stroke="#C00404" stroke-width="1.5" stroke-linecap="round" stroke-linejoin="round"/>
<path d="M11.3135 11.0837H51.3974" stroke="#C00404" stroke-width="1.5" stroke-linecap="round" stroke-linejoin="round"/>
<path d="M39.2582 4.67456H23.4512" stroke="#C00404" stroke-width="1.5" stroke-linecap="round" stroke-linejoin="round"/>
<path d="M51.3969 29.0232V8.3909C51.3969 6.33917 49.6025 4.67456 47.3879 4.67456H43.4951" stroke="#C00404" stroke-width="1.5" stroke-linecap="round" stroke-linejoin="round"/>
<path d="M19.2133 4.67456H15.3205C13.1071 4.67456 11.3115 6.33803 11.3115 8.3909V31.3664C11.3115 33.4181 12.26 35.0828 14.4734 35.0828H38.2322" stroke="#C00404" stroke-width="1.5" stroke-linecap="round" stroke-linejoin="round"/>
<path d="M43.4966 1.73486H39.2588V7.61452H43.4966V1.73486Z" stroke="#C00404" stroke-width="1.5" stroke-linecap="round" stroke-linejoin="round"/>
<path d="M23.4517 1.73486H19.2139V7.61452H23.4517V1.73486Z" stroke="#C00404" stroke-width="1.5" stroke-linecap="round" stroke-linejoin="round"/>
<path d="M46.2656 40.0642H51.5988" stroke="#C00404" stroke-width="1.5" stroke-linecap="round" stroke-linejoin="round"/>
<path d="M48.9326 37.3977V42.7308" stroke="#C00404" stroke-width="1.5" stroke-linecap="round" stroke-linejoin="round"/>
<path d="M54.1724 45.3044C57.0666 42.4102 57.0666 37.7178 54.1724 34.8236C51.2782 31.9294 46.5858 31.9294 43.6916 34.8236C40.7974 37.7178 40.7974 42.4102 43.6916 45.3044C46.5858 48.1986 51.2782 48.1986 54.1724 45.3044Z" stroke="#C00404" stroke-width="1.5" stroke-linecap="round" stroke-linejoin="round"/>
</svg>
