<svg width="37" height="37" viewBox="0 0 37 37" fill="none" xmlns="http://www.w3.org/2000/svg">
<rect x="1" y="1" width="35" height="35" rx="17.5" fill="#C00404" fill-opacity="0.08"/>
<rect x="1" y="1" width="35" height="35" rx="17.5" stroke="#F1CACA" stroke-width="2"/>
<path d="M27.6519 28.2709C28.0734 26.8433 28.1485 25.3359 27.871 23.8735C27.5936 22.4111 26.9716 21.0359 26.0565 19.8619C25.1415 18.6879 23.9598 17.7489 22.6095 17.1228C21.2591 16.4967 19.7789 16.2014 18.2917 16.2615C16.8044 16.3217 15.3529 16.7354 14.0575 17.4685C12.7621 18.2016 11.66 19.2329 10.8427 20.4769C10.0255 21.7209 9.51646 23.1418 9.35794 24.6218C9.19943 26.1018 9.39597 27.5983 9.93127 28.9872" stroke="#C00404" stroke-width="2"/>
<circle cx="18.6699" cy="10.6348" r="4.61914" stroke="#C00404" stroke-width="2"/>
<path d="M15.6733 20.9207C15.4222 20.6696 15.0152 20.6696 14.7641 20.9207C14.5131 21.1717 14.5131 21.5788 14.7641 21.8298L22.0372 29.1029C22.2883 29.354 22.6953 29.354 22.9464 29.1029C23.1974 28.8519 23.1974 28.4448 22.9464 28.1938L15.6733 20.9207Z" fill="#C00404" stroke="#C00404"/>
<path d="M22.9468 21.8298C23.1978 21.5787 23.1978 21.1717 22.9468 20.9206C22.6957 20.6696 22.2887 20.6696 22.0376 20.9206L14.7645 28.1937C14.5135 28.4448 14.5135 28.8518 14.7645 29.1029C15.0156 29.3539 15.4226 29.3539 15.6737 29.1029L22.9468 21.8298Z" fill="#C00404" stroke="#C00404"/>
</svg>
