<?xml version="1.0" encoding="UTF-8"?>
<svg id="Layer_1" xmlns="http://www.w3.org/2000/svg" version="1.1" viewBox="0 0 50 50">
  <!-- Generator: Adobe Illustrator 29.1.0, SVG Export Plug-In . SVG Version: 2.1.0 Build 142)  -->
  <defs>
    <style>
      .st0 {
        fill: #98a4ae;
      }
    </style>
  </defs>
  <path class="st0" d="M15.8,25.7s0,0,0-.1h.8c.3,0,.6-.3.6-.6s-.3-.6-.6-.6h-.8c-.3-1.9-1.8-3.5-3.8-3.9-2.5-.4-4.8,1.3-5.2,3.8-.4,2.5,1.3,4.8,3.8,5.2.2,0,.5,0,.7,0,2.2,0,4.1-1.6,4.5-3.8ZM8.1,24.5c.3-1.6,1.7-2.8,3.3-2.8s.4,0,.5,0c1.8.3,3,2,2.8,3.8-.3,1.8-2,3-3.8,2.7-1.8-.3-3-2-2.8-3.8Z"/>
  <path class="st0" d="M25,15.9c1.2,0,2.4-.5,3.2-1.3.9-.9,1.3-2,1.3-3.2s-.5-2.4-1.3-3.2c-.9-.9-2-1.3-3.2-1.3s-2.4.5-3.2,1.3c-.9.9-1.3,2-1.3,3.2s.5,2.4,1.3,3.2c.9.9,2,1.3,3.2,1.3ZM22.6,9c.6-.6,1.5-1,2.4-1s1.7.3,2.4,1c.6.6,1,1.5,1,2.4s-.3,1.7-1,2.4h0c-.6.6-1.5,1-2.4,1s-1.7-.3-2.4-1c-.6-.6-1-1.5-1-2.4s.3-1.7,1-2.4Z"/>
  <path class="st0" d="M38.6,20.5c-2.3,0-4.2,1.7-4.5,3.9h-.8c-.3,0-.6.3-.6.6s.3.6.6.6h.8c.3,2.2,2.2,3.9,4.5,3.9s4.5-2,4.5-4.5-2-4.5-4.5-4.5ZM38.6,28.3c-1.8,0-3.3-1.5-3.3-3.3,0,0,0,0,0,0s0,0,0,0c0-1.8,1.5-3.3,3.3-3.3s3.3,1.5,3.3,3.3-1.5,3.3-3.3,3.3Z"/>
  <path class="st0" d="M25.7,34.1c-2.5-.4-4.8,1.3-5.2,3.8-.2,1.2,0,2.4.8,3.4.7,1,1.8,1.6,3,1.8.2,0,.5,0,.7,0,2.2,0,4.1-1.6,4.5-3.8.2-1.2,0-2.4-.8-3.4-.7-1-1.8-1.6-3-1.8ZM28.3,39.2c-.3,1.8-2,3-3.8,2.7-.9-.1-1.6-.6-2.2-1.3-.5-.7-.7-1.6-.6-2.5.3-1.6,1.7-2.8,3.3-2.8s.4,0,.5,0c.9.1,1.6.6,2.2,1.3s.7,1.6.6,2.5Z"/>
  <path class="st0" d="M33.2,17c1.3,0,2.4-.9,2.7-2.2h2.2v4.3c0,.3.3.6.6.6s.6-.3.6-.6v-4.9c0-.3-.3-.6-.6-.6h-2.8c-.3-1.2-1.4-2.2-2.7-2.2s-2.8,1.2-2.8,2.8,1.2,2.8,2.8,2.8ZM33.2,12.7c.9,0,1.6.7,1.6,1.6s-.7,1.6-1.6,1.6-1.6-.7-1.6-1.6.7-1.6,1.6-1.6Z"/>
  <path class="st0" d="M13.6,19.5c.2,0,.4,0,.6,0,1.3,0,2.4-.9,2.7-2.1.2-.7,0-1.5-.3-2.1-.4-.6-1-1.1-1.7-1.2,0,0,0,0,0,0v-2.2h4.3c.3,0,.6-.3.6-.6s-.3-.6-.6-.6h-4.9c-.3,0-.6.3-.6.6v2.8c-1,.2-1.8,1-2.1,2.1-.2.7,0,1.5.3,2.1s1,1.1,1.7,1.2ZM12.8,16.5c.2-.7.8-1.2,1.5-1.2,0,0,0,0,0,0s0,0,0,0c.1,0,.2,0,.4,0,.4,0,.7.3,1,.7.2.4.3.8.2,1.2-.2.8-1,1.3-1.9,1.2-.4,0-.7-.3-1-.7s-.3-.8-.2-1.2Z"/>
  <path class="st0" d="M15.8,33.2c-.7.3-1.2.8-1.5,1.5,0,.1-.1.3-.1.5h-2.2v-4.3c0-.3-.3-.6-.6-.6s-.6.3-.6.6v4.9c0,.3.3.6.6.6h2.8c0,.2,0,.3.1.5.3.7.8,1.2,1.5,1.5.3.1.7.2,1.1.2s.7,0,1.1-.2c.7-.3,1.2-.8,1.5-1.5.3-.7.3-1.4,0-2.1-.6-1.4-2.2-2.1-3.6-1.5ZM18.3,36.3c-.2.4-.5.7-.8.8h0c-.8.3-1.7,0-2-.8-.2-.4-.2-.8,0-1.2.2-.4.5-.7.8-.8.2,0,.4-.1.6-.1.6,0,1.2.4,1.4,1,.2.4.2.8,0,1.2Z"/>
  <path class="st0" d="M36.4,30.5c-1.5-.4-3,.6-3.3,2.1-.2.7,0,1.5.3,2.1s1,1.1,1.7,1.2c0,0,0,0,0,0v2.2h-4.3c-.3,0-.6.3-.6.6s.3.6.6.6h4.9c.3,0,.6-.3.6-.6v-2.8c.3,0,.6-.2.8-.3.6-.4,1.1-1,1.2-1.7.4-1.5-.6-3-2.1-3.3ZM37.2,33.5h0c0,.4-.3.7-.7,1-.4.2-.8.3-1.2.2-.4,0-.7-.3-1-.7s-.3-.8-.2-1.2c.2-.7.8-1.2,1.5-1.2s.2,0,.4,0c.8.2,1.4,1,1.2,1.9Z"/>
  <path class="st0" d="M21.8,16.2c-.3,0-.6.3-.6.6h0c0,.1-.1,0-.2,0h-2.3c-.7,0-1.3.6-1.3,1.3v12.5c0,.7.6,1.3,1.3,1.3h12.5c.7,0,1.3-.6,1.3-1.3v-10.2s0,0,0,0,0,0,0,0v-2.3c0-.7-.6-1.3-1.3-1.3h-2.3c0,0-.1,0-.2,0h0c0-.5-.3-.7-.6-.7s-.6.3-.6.6h0c0,.1-.1,0-.2,0h-4.9c0,0-.1,0-.2,0h0c0-.5-.3-.7-.6-.7ZM31.3,30.8h-12.5s0,0,0,0v-9.6h12.7v9.6s0,0,0,0ZM22.6,18.1h4.9c0,0,.1,0,.2,0v.3h-.2c-.3,0-.6.3-.6.6s.3.6.6.6h1.6c.3,0,.6-.3.6-.6s-.3-.6-.6-.6h-.2v-.3c0,0,.1,0,.2,0h2.3s0,0,0,0v1.7h-12.7v-1.7s0,0,0,0h2.3c0,0,.1,0,.2,0v.3h-.2c-.3,0-.6.3-.6.6s.3.6.6.6h1.6c.3,0,.6-.3.6-.6s-.3-.6-.6-.6h-.2v-.3c0,0,.1,0,.2,0Z"/>
  <path class="st0" d="M21.2,22.8c-.8,0-1.5.7-1.5,1.5s.7,1.5,1.5,1.5,1.5-.7,1.5-1.5-.7-1.5-1.5-1.5ZM21.2,24.9c-.3,0-.6-.3-.6-.6s.3-.6.6-.6.6.3.6.6-.3.6-.6.6Z"/>
  <path class="st0" d="M25,22.8c-.8,0-1.5.7-1.5,1.5s.7,1.5,1.5,1.5,1.5-.7,1.5-1.5-.7-1.5-1.5-1.5ZM25,24.9c-.3,0-.6-.3-.6-.6s.3-.6.6-.6.6.3.6.6-.3.6-.6.6Z"/>
  <path class="st0" d="M29,22.8h-.4c-.7,0-1.3.6-1.3,1.3v.4c0,.7.6,1.3,1.3,1.3h.4c.7,0,1.3-.6,1.3-1.3v-.4c0-.7-.6-1.3-1.3-1.3ZM29.4,24.5c0,.2-.2.4-.4.4h-.4c-.2,0-.4-.2-.4-.4v-.4c0-.2.2-.4.4-.4h.4c.2,0,.4.2.4.4v.4Z"/>
  <path class="st0" d="M21.2,26.1c-.8,0-1.5.7-1.5,1.5s.7,1.5,1.5,1.5,1.5-.7,1.5-1.5-.7-1.5-1.5-1.5ZM21.2,28.2c-.3,0-.6-.3-.6-.6s.3-.6.6-.6.6.3.6.6-.3.6-.6.6Z"/>
  <path class="st0" d="M25,26.1c-.8,0-1.5.7-1.5,1.5s.7,1.5,1.5,1.5,1.5-.7,1.5-1.5-.7-1.5-1.5-1.5ZM25,28.2c-.3,0-.6-.3-.6-.6s.3-.6.6-.6.6.3.6.6-.3.6-.6.6Z"/>
  <path class="st0" d="M28.8,26.1c-.8,0-1.5.7-1.5,1.5s.7,1.5,1.5,1.5,1.5-.7,1.5-1.5-.7-1.5-1.5-1.5ZM28.8,28.2c-.3,0-.6-.3-.6-.6s.3-.6.6-.6.6.3.6.6-.3.6-.6.6Z"/>
</svg>