<?xml version="1.0" encoding="UTF-8"?>
<svg id="Layer_1" xmlns="http://www.w3.org/2000/svg" version="1.1" viewBox="0 0 46 47">
  <!-- Generator: Adobe Illustrator 29.1.0, SVG Export Plug-In . SVG Version: 2.1.0 Build 142)  -->
  <defs>
    <style>
      .st0 {
        fill: none;
        stroke: #98a4ae;
        stroke-linecap: round;
        stroke-linejoin: round;
        stroke-width: 1.5px;
      }
    </style>
  </defs>
  <path class="st0" d="M29.4,30.7h5.7M32.2,27.8v5.7M12.8,17.1h19.4M16.1,12.8v-4M28.9,12.8v-4M35.3,23.6v-10.3c0-1.4-1.1-2.6-2.6-2.6H12.3c-1.4,0-2.6,1.1-2.6,2.6v20.4c0,1.4,1.1,2.6,2.6,2.6h14.4M16,21.4c.3.6,0,1.3-.6,1.5-.6.3-1.3,0-1.5-.6-.3-.6,0-1.3.6-1.5.6-.3,1.3,0,1.5.6ZM23.3,21c.5.5.5,1.2,0,1.7s-1.2.5-1.7,0c-.5-.5-.5-1.2,0-1.7.5-.5,1.2-.5,1.7,0ZM31.1,21c.5.5.5,1.2,0,1.7s-1.2.5-1.7,0-.5-1.2,0-1.7,1.2-.5,1.7,0ZM16,26.2c.3.6,0,1.3-.6,1.5-.6.3-1.3,0-1.5-.6-.3-.6,0-1.3.6-1.5.6-.3,1.3,0,1.5.6ZM23.3,25.8c.5.5.5,1.2,0,1.7-.5.5-1.2.5-1.7,0-.5-.5-.5-1.2,0-1.7.5-.5,1.2-.5,1.7,0ZM16,31c.3.6,0,1.3-.6,1.5-.6.3-1.3,0-1.5-.6-.3-.6,0-1.3.6-1.5.6-.3,1.3,0,1.5.6ZM23.3,30.6c.5.5.5,1.2,0,1.7-.5.5-1.2.5-1.7,0-.5-.5-.5-1.2,0-1.7.5-.5,1.2-.5,1.7,0ZM36.1,26.7c2.2,2.2,2.2,5.7,0,7.8-2.2,2.2-5.7,2.2-7.8,0-2.2-2.2-2.2-5.7,0-7.8,2.2-2.2,5.7-2.2,7.8,0Z"/>
</svg>