<?xml version="1.0" encoding="UTF-8"?>
<svg id="Layer_1" xmlns="http://www.w3.org/2000/svg" version="1.1" viewBox="0 0 50 50">
  <!-- Generator: Adobe Illustrator 29.1.0, SVG Export Plug-In . SVG Version: 2.1.0 Build 142)  -->
  <defs>
    <style>
      .st0 {
        fill: #98a4ae;
      }
    </style>
  </defs>
  <path class="st0" d="M35.7,18.9H13.9c-.4,0-.7-.3-.7-.7s.3-.7.7-.7h21.7c.4,0,.7.3.7.7s-.3.7-.7.7Z"/>
  <path class="st0" d="M17.7,14c-.4,0-.7-.3-.7-.7v-4.5c0-.4.3-.7.7-.7s.7.3.7.7v4.5c0,.4-.3.7-.7.7Z"/>
  <path class="st0" d="M32,14c-.4,0-.7-.3-.7-.7v-4.5c0-.4.3-.7.7-.7s.7.3.7.7v4.5c0,.4-.3.7-.7.7Z"/>
  <path class="st0" d="M29.5,40.4H13.4c-1.9,0-3.5-1.6-3.5-3.5V14c0-1.9,1.6-3.5,3.5-3.5h22.9c1.9,0,3.5,1.6,3.5,3.5v11.5c0,.4-.3.7-.7.7s-.7-.3-.7-.7v-11.5c0-1.2-1-2.2-2.2-2.2H13.4c-1.2,0-2.2,1-2.2,2.2v22.9c0,1.2,1,2.2,2.2,2.2h16.1c.4,0,.7.3.7.7s-.3.7-.7.7Z"/>
  <path class="st0" d="M16.3,25.5c-.8,0-1.5-.5-1.8-1.2-.2-.5-.2-1,0-1.5.2-.5.6-.9,1.1-1.1.5-.2,1-.2,1.5,0,.5.2.9.6,1.1,1.1.4,1,0,2.2-1.1,2.6h0c-.2.1-.5.2-.8.2ZM16.8,24.7h0,0ZM16.3,22.8c0,0-.2,0-.3,0-.2,0-.3.2-.4.4,0,.2,0,.3,0,.5.1.3.5.5.9.4.3-.1.5-.5.4-.9,0-.2-.2-.3-.4-.4,0,0-.2,0-.3,0Z"/>
  <path class="st0" d="M24.8,25.5c-.5,0-1-.2-1.4-.6-.8-.8-.8-2,0-2.8.8-.8,2-.8,2.8,0,.8.8.8,2,0,2.8h0c-.4.4-.9.6-1.4.6ZM25.8,24.4h0,0ZM24.8,22.8c-.2,0-.3,0-.5.2-.3.3-.3.7,0,.9.3.3.7.3.9,0,.3-.3.3-.7,0-.9s-.3-.2-.5-.2Z"/>
  <path class="st0" d="M33.5,25.5c-.5,0-1-.2-1.4-.6-.8-.8-.8-2,0-2.8.8-.8,2-.8,2.8,0,.8.8.8,2,0,2.8-.4.4-.9.6-1.4.6ZM33.5,22.8c-.2,0-.3,0-.5.2-.1.1-.2.3-.2.5s0,.3.2.5c.3.3.7.3.9,0,.1-.1.2-.3.2-.5s0-.3-.2-.5c-.1-.1-.3-.2-.5-.2Z"/>
  <path class="st0" d="M16.3,30.9c-.3,0-.5,0-.8-.2-.5-.2-.9-.6-1.1-1.1s-.2-1,0-1.5c.2-.5.6-.9,1.1-1.1,1-.4,2.2,0,2.6,1.1.4,1,0,2.2-1.1,2.6-.2.1-.5.2-.8.2ZM16.3,28.2c0,0-.2,0-.3,0-.2,0-.3.2-.4.4s0,.3,0,.5.2.3.4.4c.2,0,.3,0,.5,0,.3-.1.5-.5.4-.9-.1-.3-.4-.4-.6-.4Z"/>
  <path class="st0" d="M24.8,30.9c-.5,0-1-.2-1.4-.6-.8-.8-.8-2,0-2.8.7-.7,2.1-.7,2.8,0,.8.8.8,2,0,2.8h0c-.4.4-.9.6-1.4.6ZM25.8,29.8h0,0ZM24.8,28.2c-.2,0-.3,0-.5.2-.3.3-.3.7,0,.9.3.3.7.3.9,0,.3-.3.3-.7,0-.9-.1-.1-.3-.2-.5-.2Z"/>
  <path class="st0" d="M16.3,36.3c-.3,0-.5,0-.8-.2-.5-.2-.9-.6-1.1-1.1s-.2-1,0-1.5c.2-.5.6-.9,1.1-1.1,1-.4,2.2,0,2.6,1.1.4,1,0,2.2-1.1,2.6-.2.1-.5.2-.8.2ZM16.3,33.6c0,0-.2,0-.3,0-.2,0-.3.2-.4.4s0,.3,0,.5.2.3.4.4c.2,0,.3,0,.5,0,.3-.1.5-.5.4-.9-.1-.3-.4-.4-.6-.4Z"/>
  <path class="st0" d="M24.8,36.3c-.5,0-1-.2-1.4-.6-.8-.8-.8-2,0-2.8.7-.7,2.1-.7,2.8,0,.8.8.8,2,0,2.8h0c-.4.4-.9.6-1.4.6ZM25.8,35.2h0,0ZM24.8,33.6c-.2,0-.3,0-.5.2-.3.3-.3.7,0,.9.3.3.7.3.9,0,.3-.3.3-.7,0-.9-.1-.1-.3-.2-.5-.2Z"/>
  <path class="st0" d="M35.7,40.3c-1.8,0-3.6-.7-4.9-2s-2-3-2-4.9.7-3.6,2-4.9c2.7-2.7,7-2.7,9.7,0,1.3,1.3,2,3,2,4.9s-.7,3.6-2,4.9h0c-1.3,1.3-3,2-4.9,2ZM35.7,27.9c-1.4,0-2.8.5-3.9,1.6s-1.6,2.4-1.6,3.9.6,2.9,1.6,3.9,2.4,1.6,3.9,1.6,2.9-.6,3.9-1.6h0c1-1,1.6-2.4,1.6-3.9s-.6-2.9-1.6-3.9-2.5-1.6-3.9-1.6Z"/>
  <path class="st0" d="M34.2,35.8c-.2,0-.4-.1-.6-.3-.2-.3-.1-.7.2-.9l1.7-1v-3c0-.4.3-.7.7-.7s.7.3.7.7v3.4c0,.2-.1.4-.3.6l-2,1.2c-.1,0-.2.1-.3.1Z"/>
</svg>