<svg width="495" height="221" viewBox="0 0 495 221" fill="none" xmlns="http://www.w3.org/2000/svg">
<rect width="243" height="204" rx="3.52088" fill="#F0F3F5"/>
<rect x="5.72266" y="7.04199" width="231.555" height="66.1585" rx="1.76044" fill="#008672"/>
<path opacity="0.3" d="M72.4874 38.5093V27.1653H79.5914V29.2453H74.6954V31.8373H79.1274V33.8053H74.6954V36.4293H79.5914V38.5093H72.4874ZM85.8204 38.5093H83.6924L80.4764 30.6373H82.8124L84.7644 35.9173L86.6364 30.6373H88.8764L85.8204 38.5093ZM95.0088 33.6773C94.9981 33.4853 94.9554 33.2986 94.8808 33.1173C94.8168 32.9253 94.7101 32.7599 94.5608 32.6213C94.4221 32.4719 94.2408 32.3546 94.0168 32.2693C93.8034 32.1733 93.5474 32.1253 93.2488 32.1253C92.9714 32.1253 92.7261 32.1733 92.5128 32.2693C92.2994 32.3653 92.1181 32.4879 91.9688 32.6373C91.8194 32.7866 91.7021 32.9519 91.6168 33.1333C91.5421 33.3146 91.4994 33.4959 91.4888 33.6773H95.0088ZM96.9928 36.2533C96.8968 36.5946 96.7421 36.9199 96.5288 37.2293C96.3261 37.5279 96.0754 37.7893 95.7768 38.0133C95.4781 38.2373 95.1261 38.4133 94.7208 38.5413C94.3261 38.6799 93.8888 38.7493 93.4088 38.7493C92.8648 38.7493 92.3474 38.6586 91.8568 38.4773C91.3661 38.2853 90.9341 38.0079 90.5608 37.6453C90.1874 37.2826 89.8888 36.8399 89.6648 36.3173C89.4514 35.7946 89.3448 35.2026 89.3448 34.5413C89.3448 33.9119 89.4514 33.3413 89.6648 32.8293C89.8781 32.3173 90.1608 31.8853 90.5128 31.5333C90.8754 31.1706 91.2914 30.8933 91.7608 30.7013C92.2301 30.4986 92.7154 30.3973 93.2168 30.3973C94.4434 30.3973 95.3981 30.7599 96.0808 31.4853C96.7634 32.2106 97.1048 33.2079 97.1048 34.4773C97.1048 34.6266 97.0994 34.7706 97.0888 34.9093C97.0781 35.0373 97.0728 35.1119 97.0728 35.1333H91.4408C91.4514 35.3893 91.5101 35.6293 91.6168 35.8533C91.7341 36.0666 91.8781 36.2533 92.0488 36.4133C92.2301 36.5733 92.4381 36.7013 92.6728 36.7973C92.9074 36.8826 93.1581 36.9253 93.4248 36.9253C93.9261 36.9253 94.3154 36.8133 94.5928 36.5893C94.8808 36.3653 95.0888 36.0773 95.2168 35.7253L96.9928 36.2533ZM100.909 38.5093H98.7805V30.6373H100.845V31.6133C101.09 31.2079 101.421 30.9093 101.837 30.7173C102.263 30.5253 102.69 30.4293 103.117 30.4293C103.607 30.4293 104.029 30.5146 104.381 30.6853C104.743 30.8453 105.042 31.0639 105.277 31.3413C105.511 31.6186 105.682 31.9493 105.789 32.3333C105.906 32.7173 105.965 33.1226 105.965 33.5493V38.5093H103.837V33.9173C103.837 33.4693 103.719 33.0959 103.485 32.7973C103.261 32.4986 102.893 32.3493 102.381 32.3493C101.911 32.3493 101.549 32.5093 101.293 32.8293C101.037 33.1386 100.909 33.5226 100.909 33.9813V38.5093ZM110.748 30.6373H112.332V32.5253H110.748V35.8213C110.748 36.1626 110.823 36.4026 110.972 36.5413C111.132 36.6693 111.367 36.7333 111.676 36.7333C111.804 36.7333 111.932 36.7279 112.06 36.7173C112.188 36.7066 112.279 36.6906 112.332 36.6693V38.4293C112.236 38.4719 112.087 38.5146 111.884 38.5573C111.692 38.5999 111.442 38.6213 111.132 38.6213C110.364 38.6213 109.756 38.4079 109.308 37.9813C108.86 37.5546 108.636 36.9573 108.636 36.1893V32.5253H107.212V30.6373H107.612C108.028 30.6373 108.332 30.5199 108.524 30.2853C108.727 30.0399 108.828 29.7413 108.828 29.3893V28.2853H110.748V30.6373ZM115.464 35.9173C115.485 36.2266 115.613 36.5039 115.848 36.7493C116.082 36.9946 116.434 37.1173 116.904 37.1173C117.256 37.1173 117.517 37.0426 117.688 36.8933C117.858 36.7333 117.944 36.5466 117.944 36.3333C117.944 36.1519 117.88 35.9973 117.752 35.8693C117.624 35.7306 117.405 35.6293 117.096 35.5653L116.056 35.3253C115.288 35.1546 114.728 34.8613 114.376 34.4453C114.024 34.0186 113.848 33.5279 113.848 32.9733C113.848 32.6213 113.922 32.2906 114.072 31.9813C114.221 31.6613 114.424 31.3893 114.68 31.1653C114.946 30.9306 115.256 30.7439 115.608 30.6053C115.97 30.4666 116.365 30.3973 116.792 30.3973C117.346 30.3973 117.816 30.4773 118.2 30.6373C118.584 30.7866 118.893 30.9786 119.128 31.2133C119.373 31.4479 119.554 31.6986 119.672 31.9653C119.789 32.2213 119.858 32.4559 119.88 32.6693L118.104 33.0693C118.082 32.9519 118.045 32.8346 117.992 32.7173C117.949 32.5893 117.874 32.4719 117.768 32.3653C117.661 32.2586 117.528 32.1733 117.368 32.1093C117.218 32.0453 117.032 32.0133 116.808 32.0133C116.53 32.0133 116.29 32.0879 116.088 32.2373C115.896 32.3866 115.8 32.5733 115.8 32.7973C115.8 32.9893 115.864 33.1439 115.992 33.2613C116.13 33.3786 116.306 33.4586 116.52 33.5013L117.64 33.7413C118.418 33.9013 119 34.1999 119.384 34.6373C119.778 35.0746 119.976 35.5813 119.976 36.1573C119.976 36.4773 119.912 36.7919 119.784 37.1013C119.666 37.4106 119.48 37.6879 119.224 37.9333C118.968 38.1786 118.648 38.3759 118.264 38.5253C117.88 38.6746 117.432 38.7493 116.92 38.7493C116.322 38.7493 115.821 38.6639 115.416 38.4933C115.01 38.3226 114.68 38.1146 114.424 37.8693C114.168 37.6239 113.976 37.3626 113.848 37.0853C113.73 36.7973 113.661 36.5413 113.64 36.3173L115.464 35.9173ZM129.975 36.2853C129.527 36.2853 129.175 36.1893 128.919 35.9973C128.663 35.8053 128.497 35.5759 128.423 35.3093C128.22 35.6399 127.948 35.8906 127.607 36.0613C127.276 36.2319 126.929 36.3173 126.567 36.3173C126.215 36.3173 125.889 36.2533 125.591 36.1253C125.303 35.9866 125.047 35.7946 124.823 35.5493C124.609 35.3039 124.439 35.0106 124.311 34.6693C124.193 34.3279 124.135 33.9546 124.135 33.5493C124.135 33.0266 124.22 32.5466 124.391 32.1093C124.561 31.6613 124.791 31.2773 125.079 30.9573C125.367 30.6373 125.697 30.3919 126.071 30.2213C126.455 30.0399 126.86 29.9493 127.287 29.9493C127.596 29.9493 127.9 30.0239 128.199 30.1733C128.508 30.3226 128.721 30.5519 128.839 30.8613L128.967 30.1573H130.487L129.655 34.0773C129.633 34.1839 129.623 34.2799 129.623 34.3653C129.623 34.5039 129.665 34.6266 129.751 34.7333C129.836 34.8399 129.964 34.8933 130.135 34.8933C130.327 34.8933 130.519 34.8239 130.711 34.6853C130.903 34.5466 131.068 34.3599 131.207 34.1253C131.356 33.8799 131.473 33.5919 131.559 33.2613C131.655 32.9306 131.703 32.5733 131.703 32.1893C131.703 31.6239 131.596 31.1066 131.383 30.6373C131.18 30.1679 130.892 29.7679 130.519 29.4373C130.156 29.0959 129.713 28.8346 129.191 28.6533C128.668 28.4613 128.097 28.3653 127.479 28.3653C126.807 28.3653 126.183 28.4826 125.607 28.7173C125.041 28.9413 124.551 29.2666 124.135 29.6933C123.719 30.1199 123.388 30.6319 123.143 31.2293C122.908 31.8159 122.791 32.4666 122.791 33.1813C122.791 33.8426 122.897 34.4613 123.111 35.0373C123.335 35.6026 123.649 36.0933 124.055 36.5093C124.471 36.9253 124.977 37.2559 125.575 37.5013C126.172 37.7359 126.849 37.8533 127.607 37.8533C128.119 37.8533 128.625 37.7839 129.127 37.6453C129.628 37.4959 130.103 37.2506 130.551 36.9093L131.319 37.9973C131.105 38.1893 130.849 38.3653 130.551 38.5253C130.252 38.6853 129.937 38.8186 129.607 38.9253C129.276 39.0426 128.94 39.1279 128.599 39.1813C128.257 39.2453 127.927 39.2773 127.607 39.2773C126.668 39.2773 125.804 39.1279 125.015 38.8293C124.236 38.5413 123.559 38.1359 122.983 37.6133C122.417 37.0799 121.975 36.4399 121.655 35.6933C121.335 34.9466 121.175 34.1199 121.175 33.2133C121.175 32.2853 121.34 31.4373 121.671 30.6693C122.001 29.8906 122.449 29.2239 123.015 28.6693C123.591 28.1146 124.257 27.6826 125.015 27.3733C125.783 27.0639 126.599 26.9093 127.463 26.9093C128.284 26.9093 129.047 27.0426 129.751 27.3093C130.455 27.5759 131.063 27.9439 131.575 28.4133C132.087 28.8826 132.487 29.4426 132.775 30.0933C133.073 30.7333 133.223 31.4266 133.223 32.1733C133.223 32.7813 133.132 33.3359 132.951 33.8373C132.769 34.3386 132.524 34.7706 132.215 35.1333C131.916 35.4959 131.569 35.7786 131.175 35.9813C130.791 36.1733 130.391 36.2746 129.975 36.2853ZM128.487 32.6533C128.487 32.2693 128.391 31.9653 128.199 31.7413C128.017 31.5066 127.751 31.3893 127.399 31.3893C127.153 31.3893 126.929 31.4479 126.727 31.5653C126.535 31.6719 126.369 31.8159 126.231 31.9973C126.092 32.1786 125.98 32.3919 125.895 32.6373C125.82 32.8826 125.783 33.1386 125.783 33.4053C125.783 33.8319 125.868 34.1839 126.039 34.4613C126.22 34.7386 126.513 34.8773 126.919 34.8773C127.367 34.8773 127.735 34.6693 128.023 34.2533C128.311 33.8266 128.465 33.2933 128.487 32.6533ZM139.161 27.1653C139.716 27.1653 140.206 27.2453 140.633 27.4053C141.06 27.5546 141.417 27.7679 141.705 28.0453C142.004 28.3119 142.228 28.6319 142.377 29.0053C142.537 29.3786 142.617 29.7839 142.617 30.2213C142.617 30.8079 142.462 31.3199 142.153 31.7573C141.844 32.1946 141.449 32.4933 140.969 32.6533C141.246 32.7173 141.502 32.8293 141.737 32.9893C141.982 33.1493 142.196 33.3466 142.377 33.5813C142.558 33.8053 142.702 34.0666 142.809 34.3653C142.916 34.6639 142.969 34.9893 142.969 35.3413C142.969 35.7999 142.884 36.2266 142.713 36.6213C142.553 37.0053 142.318 37.3359 142.009 37.6133C141.71 37.8906 141.342 38.1093 140.905 38.2693C140.478 38.4293 139.998 38.5093 139.465 38.5093H135.081V27.1653H139.161ZM138.825 31.8533C139.337 31.8533 139.732 31.7253 140.009 31.4693C140.297 31.2133 140.441 30.8666 140.441 30.4293C140.441 29.9919 140.302 29.6506 140.025 29.4053C139.758 29.1493 139.353 29.0213 138.809 29.0213H137.257V31.8533H138.825ZM139.049 36.6693C139.593 36.6693 140.014 36.5413 140.313 36.2853C140.612 36.0186 140.761 35.6559 140.761 35.1973C140.761 34.7493 140.617 34.3866 140.329 34.1093C140.052 33.8213 139.636 33.6773 139.081 33.6773H137.257V36.6693H139.049ZM149.456 32.7493C149.242 32.7066 149.029 32.6853 148.816 32.6853C148.538 32.6853 148.277 32.7226 148.032 32.7973C147.786 32.8719 147.573 32.9946 147.392 33.1653C147.21 33.3359 147.061 33.5653 146.944 33.8533C146.837 34.1306 146.784 34.4826 146.784 34.9093V38.5093H144.656V30.6373H146.72V31.8053C146.837 31.5493 146.986 31.3413 147.168 31.1813C147.36 31.0106 147.557 30.8826 147.76 30.7973C147.973 30.7119 148.181 30.6533 148.384 30.6213C148.597 30.5893 148.789 30.5733 148.96 30.5733C149.045 30.5733 149.125 30.5786 149.2 30.5893C149.285 30.5893 149.37 30.5946 149.456 30.6053V32.7493ZM154.41 36.8133C154.666 36.8133 154.917 36.7653 155.162 36.6693C155.408 36.5733 155.621 36.4346 155.802 36.2533C155.984 36.0613 156.128 35.8266 156.234 35.5493C156.352 35.2719 156.41 34.9466 156.41 34.5733C156.41 34.1999 156.352 33.8746 156.234 33.5973C156.128 33.3199 155.984 33.0906 155.802 32.9093C155.621 32.7173 155.408 32.5733 155.162 32.4773C154.917 32.3813 154.666 32.3333 154.41 32.3333C154.154 32.3333 153.904 32.3813 153.658 32.4773C153.413 32.5733 153.2 32.7173 153.018 32.9093C152.837 33.0906 152.688 33.3199 152.57 33.5973C152.464 33.8746 152.41 34.1999 152.41 34.5733C152.41 34.9466 152.464 35.2719 152.57 35.5493C152.688 35.8266 152.837 36.0613 153.018 36.2533C153.2 36.4346 153.413 36.5733 153.658 36.6693C153.904 36.7653 154.154 36.8133 154.41 36.8133ZM154.41 30.3973C154.997 30.3973 155.541 30.5039 156.042 30.7173C156.554 30.9199 156.992 31.2079 157.354 31.5813C157.728 31.9439 158.016 32.3813 158.218 32.8933C158.432 33.4053 158.538 33.9653 158.538 34.5733C158.538 35.1813 158.432 35.7413 158.218 36.2533C158.016 36.7546 157.728 37.1919 157.354 37.5653C156.992 37.9386 156.554 38.2319 156.042 38.4453C155.541 38.6479 154.997 38.7493 154.41 38.7493C153.824 38.7493 153.274 38.6479 152.762 38.4453C152.261 38.2319 151.824 37.9386 151.45 37.5653C151.088 37.1919 150.8 36.7546 150.586 36.2533C150.384 35.7413 150.282 35.1813 150.282 34.5733C150.282 33.9653 150.384 33.4053 150.586 32.8933C150.8 32.3813 151.088 31.9439 151.45 31.5813C151.824 31.2079 152.261 30.9199 152.762 30.7173C153.274 30.5039 153.824 30.3973 154.41 30.3973ZM166.719 30.6373L168.415 35.7093L169.871 30.6373H171.983L169.519 38.5093H167.391L165.551 33.1333L163.743 38.5093H161.583L159.071 30.6373H161.311L162.767 35.6933L164.479 30.6373H166.719ZM175.44 38.5093H173.312V30.6373H175.376V31.6133C175.621 31.2079 175.952 30.9093 176.368 30.7173C176.794 30.5253 177.221 30.4293 177.648 30.4293C178.138 30.4293 178.56 30.5146 178.912 30.6853C179.274 30.8453 179.573 31.0639 179.808 31.3413C180.042 31.6186 180.213 31.9493 180.32 32.3333C180.437 32.7173 180.496 33.1226 180.496 33.5493V38.5093H178.368V33.9173C178.368 33.4693 178.25 33.0959 178.016 32.7973C177.792 32.4986 177.424 32.3493 176.912 32.3493C176.442 32.3493 176.08 32.5093 175.824 32.8293C175.568 33.1386 175.44 33.5226 175.44 33.9813V38.5093Z" fill="white"/>
<path d="M22.2627 59.9687C22.2627 59.2379 22.8551 58.6455 23.5859 58.6455H47.4029C48.1337 58.6455 48.7261 59.2379 48.7261 59.9687V74.6554H22.2627V59.9687Z" fill="white"/>
<path opacity="0.4" d="M50.0488 59.9687C50.0488 59.2379 50.6412 58.6455 51.372 58.6455H75.1891C75.9198 58.6455 76.5122 59.2379 76.5122 59.9687V73.862H50.0488V59.9687Z" fill="white"/>
<path opacity="0.4" d="M77.8359 59.9687C77.8359 59.2379 78.4283 58.6455 79.1591 58.6455H102.976C103.707 58.6455 104.299 59.2379 104.299 59.9687V73.862H77.8359V59.9687Z" fill="white"/>
<path opacity="0.4" d="M105.622 59.9687C105.622 59.2379 106.214 58.6455 106.945 58.6455H130.762C131.493 58.6455 132.085 59.2379 132.085 59.9687V73.862H105.622V59.9687Z" fill="white"/>
<path opacity="0.4" d="M133.409 59.9687C133.409 59.2379 134.002 58.6455 134.732 58.6455H158.549C159.28 58.6455 159.873 59.2379 159.873 59.9687V73.862H133.409V59.9687Z" fill="white"/>
<path d="M22.2627 74.6553H220.738V109.058C220.738 109.788 220.146 110.381 219.415 110.381H23.5859C22.8551 110.381 22.2627 109.788 22.2627 109.058V74.6553Z" fill="white"/>
<rect x="32.8477" y="85.2407" width="177.305" height="7.93902" rx="1.32317" fill="#F0F3F5"/>
<rect x="32.8477" y="95.8262" width="86.006" height="3.96951" rx="1.32317" fill="#F0F3F5"/>
<path d="M22.2627 116.997C22.2627 116.266 22.8551 115.674 23.5859 115.674H161.196C161.926 115.674 162.519 116.266 162.519 116.997V165.954C162.519 166.685 161.926 167.277 161.196 167.277H23.5859C22.8551 167.277 22.2627 166.685 22.2627 165.954V116.997Z" fill="white"/>
<rect x="32.8477" y="126.259" width="26.4634" height="26.4634" rx="1.32317" fill="#F0F3F5"/>
<rect x="64.6045" y="126.259" width="55.818" height="3.96951" rx="1.32317" fill="#F0F3F5"/>
<rect x="64.6045" y="132.875" width="87.3292" height="7.93902" rx="1.32317" fill="#008672"/>
<rect x="64.6045" y="143.46" width="87.3292" height="5.29268" rx="1.32317" fill="#98A4AE"/>
<rect x="64.6045" y="151.399" width="76.0823" height="5.29268" rx="1.32317" fill="#98A4AE"/>
<path d="M22.2627 173.893C22.2627 173.163 22.8551 172.57 23.5859 172.57H161.196C161.926 172.57 162.519 173.163 162.519 173.893V218.881C162.519 219.612 161.926 220.204 161.196 220.204H23.5859C22.8551 220.204 22.2627 219.612 22.2627 218.881V173.893Z" fill="white"/>
<rect x="32.8477" y="183.156" width="26.4634" height="26.4634" rx="1.32317" fill="#F0F3F5"/>
<rect x="64.6045" y="183.156" width="55.818" height="3.96951" rx="1.32317" fill="#F0F3F5"/>
<rect x="64.6045" y="189.771" width="87.3292" height="7.93902" rx="1.32317" fill="#008672"/>
<rect x="64.6045" y="200.357" width="57.8794" height="5.29268" rx="1.32317" fill="#98A4AE"/>
<rect x="167.812" y="115.674" width="52.9268" height="104.53" rx="1.32317" fill="white"/>
<rect x="173.103" y="119.119" width="42.3414" height="2.64634" rx="1.32317" fill="#008672"/>
<rect x="251.5" width="243" height="204" rx="3.52088" fill="#F8F7F5"/>
<rect x="259.5" y="7.04199" width="225.906" height="210.25" rx="4" fill="white"/>
<rect x="259.5" y="38.75" width="225.906" height="67" fill="#D7D3C8"/>
<rect x="281.986" y="13.813" width="15.165" height="6.31277" rx="2" fill="#EFECE5"/>
<rect x="309.236" y="13.813" width="38.5137" height="6.31277" rx="2" fill="#EFECE5"/>
<rect opacity="0.6" x="272.051" y="79.0649" width="119.228" height="6.31277" rx="2" fill="white"/>
<rect opacity="0.6" x="272.051" y="88.0649" width="67.9492" height="6.31277" rx="2" fill="white"/>
<rect x="272.051" y="13.813" width="6.27517" height="6.31277" rx="2" fill="#4E3629"/>
<rect x="403.83" y="13.813" width="18.8255" height="4.20851" rx="2" fill="#B7B09C"/>
<rect x="428.93" y="13.813" width="18.8255" height="4.20851" rx="2" fill="#B7B09C"/>
<rect x="454.031" y="13.813" width="18.8255" height="4.20851" rx="2" fill="#B7B09C"/>
<line x1="302.426" y1="23.2817" x2="302.426" y2="10.6562" stroke="#EFECE5" stroke-width="2"/>
<rect x="259.5" y="26.4385" width="225.906" height="12.6255" fill="#4E3629"/>
<rect x="284.602" y="30.647" width="25.1007" height="4.20851" rx="2" fill="#B7B09C"/>
<rect x="272.051" y="30.647" width="18.8255" height="4.20851" rx="2" fill="#B7B09C"/>
<rect x="315.977" y="30.647" width="18.8255" height="4.20851" rx="2" fill="#B7B09C"/>
<rect x="341.078" y="30.647" width="18.8255" height="4.20851" rx="2" fill="#B7B09C"/>
<rect x="366.178" y="30.647" width="18.8255" height="4.20851" rx="2" fill="#B7B09C"/>
<rect x="391.279" y="30.647" width="12.5504" height="4.20851" rx="2" fill="#B7B09C"/>
<path opacity="0.6" d="M276.514 69.702C276.973 69.702 277.41 69.6327 277.826 69.494C278.242 69.3447 278.605 69.1207 278.914 68.822C279.223 68.5233 279.469 68.15 279.65 67.702C279.831 67.2433 279.922 66.7047 279.922 66.086C279.922 65.4673 279.831 64.934 279.65 64.486C279.469 64.0273 279.223 63.6487 278.914 63.35C278.615 63.0513 278.258 62.8273 277.842 62.678C277.426 62.5287 276.989 62.454 276.53 62.454H274.754V69.702H276.514ZM272.546 71.75V60.406H276.61C277.421 60.406 278.167 60.534 278.85 60.79C279.533 61.046 280.119 61.4193 280.61 61.91C281.111 62.39 281.501 62.982 281.778 63.686C282.066 64.39 282.21 65.19 282.21 66.086C282.21 66.982 282.066 67.782 281.778 68.486C281.501 69.19 281.111 69.782 280.61 70.262C280.109 70.742 279.517 71.11 278.834 71.366C278.151 71.622 277.405 71.75 276.594 71.75H272.546ZM288.764 65.99C288.551 65.9473 288.337 65.926 288.124 65.926C287.847 65.926 287.585 65.9633 287.34 66.038C287.095 66.1127 286.881 66.2353 286.7 66.406C286.519 66.5767 286.369 66.806 286.252 67.094C286.145 67.3713 286.092 67.7233 286.092 68.15V71.75H283.964V63.878H286.028V65.046C286.145 64.79 286.295 64.582 286.476 64.422C286.668 64.2513 286.865 64.1233 287.068 64.038C287.281 63.9527 287.489 63.894 287.692 63.862C287.905 63.83 288.097 63.814 288.268 63.814C288.353 63.814 288.433 63.8193 288.508 63.83C288.593 63.83 288.679 63.8353 288.764 63.846V65.99ZM295.397 71.75C295.376 71.6647 295.36 71.542 295.349 71.382C295.339 71.222 295.333 71.062 295.333 70.902C295.12 71.2753 294.805 71.5473 294.389 71.718C293.984 71.878 293.573 71.958 293.157 71.958C292.677 71.958 292.251 71.878 291.877 71.718C291.515 71.5473 291.205 71.3233 290.949 71.046C290.693 70.7687 290.496 70.4433 290.357 70.07C290.229 69.686 290.165 69.2807 290.165 68.854V63.878H292.293V68.422C292.293 68.87 292.405 69.2487 292.629 69.558C292.864 69.8567 293.232 70.006 293.733 70.006C294.213 70.006 294.581 69.862 294.837 69.574C295.093 69.286 295.221 68.9127 295.221 68.454V63.878H297.349V70.326C297.349 70.6353 297.355 70.918 297.365 71.174C297.387 71.4193 297.408 71.6113 297.429 71.75H295.397ZM299.62 74.79V63.878H301.684V64.838C301.866 64.5287 302.164 64.262 302.58 64.038C302.996 63.814 303.503 63.702 304.1 63.702C304.676 63.702 305.188 63.8087 305.636 64.022C306.084 64.2247 306.463 64.5127 306.772 64.886C307.092 65.2487 307.332 65.6807 307.492 66.182C307.652 66.6727 307.732 67.2113 307.732 67.798C307.732 68.3953 307.642 68.95 307.46 69.462C307.29 69.9633 307.039 70.4007 306.708 70.774C306.388 71.1367 305.999 71.4247 305.54 71.638C305.082 71.8407 304.575 71.942 304.02 71.942C303.476 71.942 303.007 71.8513 302.612 71.67C302.228 71.478 301.94 71.2487 301.748 70.982V74.79H299.62ZM305.636 67.814C305.636 67.11 305.444 66.566 305.06 66.182C304.687 65.798 304.228 65.606 303.684 65.606C303.407 65.606 303.151 65.6593 302.916 65.766C302.682 65.862 302.474 66.006 302.292 66.198C302.111 66.3793 301.967 66.6087 301.86 66.886C301.764 67.1527 301.716 67.462 301.716 67.814C301.716 68.166 301.764 68.4807 301.86 68.758C301.967 69.0247 302.111 69.254 302.292 69.446C302.474 69.638 302.682 69.7873 302.916 69.894C303.151 69.99 303.407 70.038 303.684 70.038C304.228 70.038 304.687 69.846 305.06 69.462C305.444 69.0673 305.636 68.518 305.636 67.814ZM308.937 69.606C308.937 69.254 308.996 68.9447 309.113 68.678C309.241 68.4007 309.412 68.1607 309.625 67.958C309.839 67.7553 310.084 67.5953 310.361 67.478C310.649 67.3607 310.959 67.2753 311.289 67.222L313.225 66.934C313.449 66.902 313.604 66.838 313.689 66.742C313.775 66.6353 313.817 66.5127 313.817 66.374C313.817 66.0967 313.705 65.8567 313.481 65.654C313.268 65.4513 312.937 65.35 312.489 65.35C312.02 65.35 311.657 65.478 311.401 65.734C311.156 65.99 311.017 66.2887 310.985 66.63L309.097 66.23C309.129 65.9207 309.225 65.6113 309.385 65.302C309.545 64.9927 309.764 64.7153 310.041 64.47C310.319 64.2247 310.66 64.0273 311.065 63.878C311.471 63.718 311.94 63.638 312.473 63.638C313.092 63.638 313.62 63.7233 314.057 63.894C314.495 64.054 314.847 64.2727 315.113 64.55C315.391 64.8167 315.588 65.1313 315.705 65.494C315.833 65.8567 315.897 66.2353 315.897 66.63V70.502C315.897 70.7153 315.908 70.9447 315.929 71.19C315.951 71.4247 315.972 71.6113 315.993 71.75H314.041C314.02 71.6433 313.999 71.4993 313.977 71.318C313.967 71.126 313.961 70.9553 313.961 70.806C313.759 71.1153 313.465 71.3873 313.081 71.622C312.708 71.8567 312.228 71.974 311.641 71.974C311.225 71.974 310.847 71.9047 310.505 71.766C310.175 71.638 309.892 71.4673 309.657 71.254C309.423 71.03 309.241 70.7793 309.113 70.502C308.996 70.214 308.937 69.9153 308.937 69.606ZM312.089 70.39C312.313 70.39 312.527 70.3633 312.729 70.31C312.943 70.246 313.129 70.1447 313.289 70.006C313.449 69.8567 313.577 69.67 313.673 69.446C313.769 69.2113 313.817 68.918 313.817 68.566V68.214L312.041 68.486C311.764 68.5287 311.529 68.63 311.337 68.79C311.156 68.9393 311.065 69.1687 311.065 69.478C311.065 69.7127 311.151 69.926 311.321 70.118C311.492 70.2993 311.748 70.39 312.089 70.39ZM318.042 71.75V60.166H320.17V71.75H318.042ZM331.698 71.99C330.908 71.99 330.162 71.8513 329.458 71.574C328.754 71.2967 328.135 70.902 327.602 70.39C327.079 69.878 326.663 69.2593 326.354 68.534C326.044 67.8087 325.89 66.9927 325.89 66.086C325.89 65.1793 326.044 64.3633 326.354 63.638C326.674 62.902 327.1 62.278 327.634 61.766C328.167 61.254 328.78 60.8593 329.474 60.582C330.178 60.3047 330.908 60.166 331.666 60.166C332.444 60.166 333.132 60.278 333.73 60.502C334.338 60.7153 334.85 61.0033 335.266 61.366C335.692 61.718 336.034 62.118 336.29 62.566C336.556 63.014 336.748 63.4673 336.866 63.926L334.786 64.582C334.722 64.3153 334.615 64.0433 334.466 63.766C334.316 63.4887 334.114 63.2433 333.858 63.03C333.612 62.8167 333.308 62.6407 332.946 62.502C332.583 62.3633 332.156 62.294 331.666 62.294C331.239 62.294 330.818 62.374 330.402 62.534C329.986 62.6833 329.612 62.9127 329.282 63.222C328.951 63.5313 328.684 63.926 328.482 64.406C328.279 64.886 328.178 65.446 328.178 66.086C328.178 66.694 328.274 67.2327 328.466 67.702C328.668 68.1607 328.93 68.55 329.25 68.87C329.58 69.1793 329.954 69.4193 330.37 69.59C330.796 69.75 331.239 69.83 331.698 69.83C332.178 69.83 332.599 69.7607 332.962 69.622C333.335 69.4727 333.65 69.286 333.906 69.062C334.162 68.838 334.37 68.5927 334.53 68.326C334.69 68.0487 334.807 67.7767 334.882 67.51L336.946 68.134C336.839 68.5713 336.652 69.0193 336.386 69.478C336.13 69.926 335.783 70.3367 335.346 70.71C334.919 71.0833 334.402 71.3927 333.794 71.638C333.196 71.8727 332.498 71.99 331.698 71.99ZM338.464 71.75V60.166H340.592V71.75H338.464ZM346.406 70.054C346.662 70.054 346.913 70.006 347.158 69.91C347.404 69.814 347.617 69.6753 347.798 69.494C347.98 69.302 348.124 69.0673 348.23 68.79C348.348 68.5127 348.406 68.1873 348.406 67.814C348.406 67.4407 348.348 67.1153 348.23 66.838C348.124 66.5607 347.98 66.3313 347.798 66.15C347.617 65.958 347.404 65.814 347.158 65.718C346.913 65.622 346.662 65.574 346.406 65.574C346.15 65.574 345.9 65.622 345.654 65.718C345.409 65.814 345.196 65.958 345.014 66.15C344.833 66.3313 344.684 66.5607 344.566 66.838C344.46 67.1153 344.406 67.4407 344.406 67.814C344.406 68.1873 344.46 68.5127 344.566 68.79C344.684 69.0673 344.833 69.302 345.014 69.494C345.196 69.6753 345.409 69.814 345.654 69.91C345.9 70.006 346.15 70.054 346.406 70.054ZM346.406 63.638C346.993 63.638 347.537 63.7447 348.038 63.958C348.55 64.1607 348.988 64.4487 349.35 64.822C349.724 65.1847 350.012 65.622 350.214 66.134C350.428 66.646 350.534 67.206 350.534 67.814C350.534 68.422 350.428 68.982 350.214 69.494C350.012 69.9953 349.724 70.4327 349.35 70.806C348.988 71.1793 348.55 71.4727 348.038 71.686C347.537 71.8887 346.993 71.99 346.406 71.99C345.82 71.99 345.27 71.8887 344.758 71.686C344.257 71.4727 343.82 71.1793 343.446 70.806C343.084 70.4327 342.796 69.9953 342.582 69.494C342.38 68.982 342.278 68.422 342.278 67.814C342.278 67.206 342.38 66.646 342.582 66.134C342.796 65.622 343.084 65.1847 343.446 64.822C343.82 64.4487 344.257 64.1607 344.758 63.958C345.27 63.7447 345.82 63.638 346.406 63.638ZM357.335 71.75C357.314 71.6647 357.298 71.542 357.287 71.382C357.276 71.222 357.271 71.062 357.271 70.902C357.058 71.2753 356.743 71.5473 356.327 71.718C355.922 71.878 355.511 71.958 355.095 71.958C354.615 71.958 354.188 71.878 353.815 71.718C353.452 71.5473 353.143 71.3233 352.887 71.046C352.631 70.7687 352.434 70.4433 352.295 70.07C352.167 69.686 352.103 69.2807 352.103 68.854V63.878H354.231V68.422C354.231 68.87 354.343 69.2487 354.567 69.558C354.802 69.8567 355.17 70.006 355.671 70.006C356.151 70.006 356.519 69.862 356.775 69.574C357.031 69.286 357.159 68.9127 357.159 68.454V63.878H359.287V70.326C359.287 70.6353 359.292 70.918 359.303 71.174C359.324 71.4193 359.346 71.6113 359.367 71.75H357.335ZM369.031 70.326C369.031 70.5927 369.036 70.8593 369.047 71.126C369.057 71.382 369.073 71.59 369.095 71.75H367.063C367.041 71.6647 367.02 71.5367 366.999 71.366C366.988 71.1953 366.983 71.0193 366.983 70.838C366.801 71.1473 366.519 71.4087 366.135 71.622C365.761 71.8353 365.308 71.942 364.775 71.942C364.209 71.942 363.692 71.8407 363.223 71.638C362.753 71.4247 362.348 71.1367 362.007 70.774C361.676 70.4007 361.415 69.9633 361.223 69.462C361.031 68.95 360.935 68.3953 360.935 67.798C360.935 67.222 361.025 66.6833 361.207 66.182C361.399 65.6807 361.66 65.2487 361.991 64.886C362.321 64.5127 362.716 64.2193 363.175 64.006C363.644 63.7927 364.156 63.686 364.711 63.686C365.052 63.686 365.345 63.718 365.591 63.782C365.847 63.846 366.065 63.926 366.247 64.022C366.428 64.118 366.572 64.2247 366.679 64.342C366.796 64.4487 366.881 64.5553 366.935 64.662V60.166H369.031V70.326ZM363.079 67.798C363.079 68.502 363.26 69.0513 363.623 69.446C363.996 69.8407 364.465 70.038 365.031 70.038C365.575 70.038 366.033 69.8407 366.407 69.446C366.78 69.0513 366.967 68.4967 366.967 67.782C366.967 67.078 366.78 66.5393 366.407 66.166C366.033 65.782 365.575 65.59 365.031 65.59C364.487 65.59 364.023 65.782 363.639 66.166C363.265 66.55 363.079 67.094 363.079 67.798Z" fill="white"/>
<path d="M160.77 143.833C160.77 146.779 163.158 149.166 166.104 149.166C169.049 149.166 171.437 146.779 171.437 143.833C171.437 140.887 169.049 138.5 166.104 138.5C163.158 138.5 160.77 140.887 160.77 143.833ZM267.737 144.54C268.127 144.15 268.127 143.516 267.737 143.126L261.373 136.762C260.982 136.371 260.349 136.371 259.959 136.762C259.568 137.152 259.568 137.786 259.959 138.176L265.615 143.833L259.959 149.49C259.568 149.88 259.568 150.514 259.959 150.904C260.349 151.295 260.982 151.295 261.373 150.904L267.737 144.54ZM166.104 144.833L267.03 144.833L267.03 142.833L166.104 142.833L166.104 144.833Z" fill="url(#paint0_linear_212_815)"/>
<rect x="449.5" y="115.75" width="26.4634" height="26.4634" rx="1.32317" fill="#F8F7F5"/>
<rect x="449.5" y="163.531" width="26.4634" height="26.4634" rx="1.32317" fill="#F8F7F5"/>
<rect x="317.256" y="117" width="61.9202" height="3.96951" rx="1.32317" fill="#F8F7F5"/>
<rect x="317.256" y="164.781" width="61.9202" height="3.96951" rx="1.32317" fill="#F8F7F5"/>
<rect x="317.256" y="123.616" width="124.244" height="7.93902" rx="1.32317" fill="#D7D3C8"/>
<rect x="317.256" y="171.397" width="124.244" height="7.93902" rx="1.32317" fill="#D7D3C8"/>
<rect x="317.256" y="134.201" width="112.59" height="5.29268" rx="1.32317" fill="#EFECE5"/>
<rect x="317.256" y="181.982" width="112.59" height="5.29268" rx="1.32317" fill="#EFECE5"/>
<rect x="317.256" y="142.14" width="76.0823" height="5.29268" rx="1.32317" fill="#EFECE5"/>
<rect x="317.256" y="189.921" width="76.0823" height="5.29268" rx="1.32317" fill="#EFECE5"/>
<line x1="317" y1="156.219" x2="475.5" y2="156.219" stroke="#EFECE5"/>
<line x1="317" y1="204" x2="476.25" y2="204" stroke="#EFECE5"/>
<rect x="271.5" y="116.75" width="34" height="3.35029" rx="1.32317" fill="#F8F7F5"/>
<rect x="271.5" y="123.908" width="26.5" height="4.46705" rx="1.32317" fill="#EFECE5"/>
<rect x="271.5" y="132.183" width="30.75" height="4.46705" rx="1.32317" fill="#EFECE5"/>
<rect x="271.5" y="140.458" width="34" height="4.46705" rx="1.32317" fill="#EFECE5"/>
<rect x="271.5" y="148.733" width="20.75" height="4.46705" rx="1.32317" fill="#EFECE5"/>
<rect x="271.5" y="157.008" width="25.25" height="4.46705" rx="1.32317" fill="#EFECE5"/>
<rect x="271.5" y="165.283" width="17.25" height="4.46705" rx="1.32317" fill="#EFECE5"/>
<defs>
<linearGradient id="paint0_linear_212_815" x1="166.104" y1="144.333" x2="267.03" y2="144.333" gradientUnits="userSpaceOnUse">
<stop stop-color="#008672"/>
<stop offset="0.555" stop-color="#B7B09C"/>
</linearGradient>
</defs>
</svg>
