<svg width="62" height="63" viewBox="0 0 62 63" fill="none" xmlns="http://www.w3.org/2000/svg">
<path d="M54.734 6.42889V32.512C54.734 35.8576 52.0292 38.5726 48.6836 38.5852L22.3941 38.6764M1 42.7929H60.9989M7.33084 6.42889V32.512C7.33084 35.8576 10.0356 38.5726 13.3812 38.5852L39.6707 38.6764M11.9787 9.27166H36.7231M41.8445 1V5.92835M20.4022 1V5.92835M40.0793 5.9283H43.6097M18.6369 5.92837H22.1672M22.1674 2.585H33.1929M37.6364 34.5896H13.1817C12.3025 34.5896 11.5898 33.8735 11.5898 32.9887V4.18597C11.5898 3.30225 12.3025 2.585 13.1817 2.585H40.0516M36.7231 2.585H48.5058C49.3735 2.585 50.0759 3.28856 50.0759 4.15519M46.0314 33.9625H43.8728C42.7337 33.9625 41.8089 33.0605 41.8089 31.9487V11.2854C41.8089 10.1736 42.7325 9.27166 43.8728 9.27166H46.0314M35.9306 21.4876H46.0313M55.1127 10.6731H58.8391C60.033 10.6731 61 11.6401 61 12.834V46.11C61 49.093 58.5814 51.5116 55.5984 51.5116H6.40157C3.41856 51.5116 1 49.093 1 46.11V12.834C1 11.6401 1.96697 10.6731 3.16086 10.6731H6.8862M21.6554 61.4014V59.6054C21.6554 58.1367 22.9792 56.9463 24.6133 56.9463H37.3857C39.0198 56.9463 40.3436 58.1367 40.3436 59.6054V61.4014H21.6542H21.6554ZM29.3773 56.9463V51.5128H32.6237V56.9463H29.3773ZM33.3617 27.0717L34.9592 24.3042L33.9979 23.5026C33.3719 22.9803 33.0105 22.2072 33.0116 21.3919V21.3782C33.0116 21.3782 33.0116 21.368 33.0116 21.3623C33.0093 20.5572 33.3525 19.7898 33.9706 19.2744L34.9581 18.45L33.3605 15.6825L32.1541 16.1249C31.3969 16.4031 30.56 16.3153 29.8621 15.9094C29.853 15.9037 29.8439 15.8991 29.8347 15.8934C29.138 15.4932 28.6477 14.8124 28.5097 14.0211L28.2896 12.7542H25.0945L24.8745 14.0211C24.7365 14.8124 24.2473 15.4932 23.5506 15.8934C23.5403 15.8991 23.5312 15.9048 23.5209 15.9105C22.8231 16.3165 21.9861 16.4043 21.2289 16.126L20.0214 15.6836L18.425 18.4511L19.3862 19.2527C20.0122 19.775 20.3737 20.5481 20.3737 21.3634V21.376C20.3737 21.376 20.3737 21.3874 20.3737 21.3931C20.376 22.1981 20.0328 22.9655 19.4147 23.4809L18.4272 24.3054L20.0259 27.0717L21.2324 26.6281C21.9895 26.3499 22.8265 26.4377 23.5243 26.8425C23.5335 26.8482 23.5426 26.8528 23.5517 26.8585C24.2484 27.2587 24.7388 27.9395 24.8767 28.7309L25.0968 29.9977H28.2919L28.512 28.7297C28.6488 27.9383 29.1392 27.2576 29.8359 26.8573C29.845 26.8516 29.8541 26.8471 29.8632 26.8414C30.5611 26.4366 31.3981 26.3476 32.1552 26.6259L33.3628 27.0683L33.3617 27.0717ZM49.2909 7.90445C50.0456 7.90445 50.6575 8.51631 50.6575 9.27109C50.6575 10.0259 50.0456 10.6377 49.2909 10.6377C48.5361 10.6377 47.9242 10.0259 47.9242 9.27109C47.9242 8.51631 48.5361 7.90445 49.2909 7.90445ZM49.2909 20.1205C50.0456 20.1205 50.6575 20.7324 50.6575 21.4871C50.6575 22.2419 50.0456 22.8538 49.2909 22.8538C48.5361 22.8538 47.9242 22.2419 47.9242 21.4871C47.9242 20.7324 48.5361 20.1205 49.2909 20.1205ZM26.6908 18.8011C28.1739 18.8011 29.3762 20.0034 29.3762 21.4865C29.3762 22.9696 28.1739 24.1719 26.6908 24.1719C25.2077 24.1719 24.0054 22.9696 24.0054 21.4865C24.0054 20.0034 25.2077 18.8011 26.6908 18.8011ZM49.2909 31.8564C50.0456 31.8564 50.6575 32.4682 50.6575 33.223C50.6575 33.9778 50.0456 34.5896 49.2909 34.5896C48.5361 34.5896 47.9242 33.9778 47.9242 33.223C47.9242 32.4682 48.5361 31.8564 49.2909 31.8564Z" stroke="#98A4AE" stroke-width="1.5" stroke-linecap="round" stroke-linejoin="round"/>
</svg>
