<svg width="352" height="426" viewBox="0 0 352 426" fill="none" xmlns="http://www.w3.org/2000/svg">
<rect width="352" height="384" rx="5.10545" fill="#ACE5F3" fill-opacity="0.3"/>
<rect x="8.11719" y="10.2109" width="335.766" height="95.9331" rx="2.55273" fill="#007DA0"/>
<path opacity="0.3" d="M97.8806 55.9497V39.6257H108.103V42.6188H101.058V46.3487H107.435V49.1807H101.058V52.9566H108.103V55.9497H97.8806ZM117.067 55.9497H114.005L109.377 44.6219H112.738L115.547 52.2198L118.241 44.6219H121.464L117.067 55.9497ZM130.289 48.9965C130.273 48.7202 130.212 48.4516 130.105 48.1906C130.012 47.9144 129.859 47.6764 129.644 47.4769C129.445 47.262 129.184 47.0932 128.861 46.9704C128.554 46.8322 128.186 46.7632 127.756 46.7632C127.357 46.7632 127.004 46.8322 126.697 46.9704C126.39 47.1085 126.129 47.285 125.914 47.4999C125.699 47.7148 125.53 47.9527 125.408 48.2137C125.3 48.4746 125.239 48.7355 125.223 48.9965H130.289ZM133.144 52.7033C133.006 53.1945 132.783 53.6627 132.476 54.1078C132.184 54.5376 131.824 54.9136 131.394 55.236C130.964 55.5583 130.458 55.8116 129.874 55.9958C129.306 56.1953 128.677 56.2951 127.986 56.2951C127.204 56.2951 126.459 56.1646 125.753 55.9037C125.047 55.6274 124.425 55.2283 123.888 54.7064C123.351 54.1845 122.921 53.5475 122.599 52.7954C122.292 52.0433 122.138 51.1914 122.138 50.2398C122.138 49.3342 122.292 48.513 122.599 47.7762C122.906 47.0394 123.312 46.4178 123.819 45.9113C124.341 45.3894 124.939 44.9903 125.615 44.714C126.29 44.4224 126.989 44.2766 127.71 44.2766C129.475 44.2766 130.849 44.7984 131.831 45.8422C132.814 46.886 133.305 48.3211 133.305 50.1477C133.305 50.3626 133.297 50.5698 133.282 50.7693C133.266 50.9535 133.259 51.061 133.259 51.0917H125.154C125.17 51.46 125.254 51.8054 125.408 52.1277C125.576 52.4347 125.784 52.7033 126.029 52.9336C126.29 53.1638 126.59 53.348 126.927 53.4861C127.265 53.6089 127.626 53.6703 128.009 53.6703C128.731 53.6703 129.291 53.5092 129.69 53.1868C130.105 52.8645 130.404 52.4501 130.588 51.9435L133.144 52.7033ZM138.778 55.9497H135.716V44.6219H138.686V46.0264C139.039 45.4431 139.515 45.0133 140.114 44.7371C140.728 44.4608 141.342 44.3226 141.956 44.3226C142.662 44.3226 143.268 44.4454 143.775 44.691C144.297 44.9212 144.726 45.2359 145.064 45.635C145.402 46.0341 145.647 46.5099 145.801 47.0625C145.97 47.615 146.054 48.1983 146.054 48.8123V55.9497H142.992V49.3418C142.992 48.6972 142.823 48.1599 142.485 47.7302C142.163 47.3004 141.633 47.0855 140.897 47.0855C140.221 47.0855 139.699 47.3157 139.331 47.7762C138.963 48.2213 138.778 48.7739 138.778 49.4339V55.9497ZM152.938 44.6219H155.217V47.3388H152.938V52.0817C152.938 52.5729 153.045 52.9182 153.26 53.1178C153.49 53.302 153.828 53.3941 154.273 53.3941C154.457 53.3941 154.642 53.3864 154.826 53.371C155.01 53.3557 155.14 53.3327 155.217 53.302V55.8346C155.079 55.896 154.864 55.9574 154.573 56.0188C154.296 56.0802 153.936 56.1109 153.49 56.1109C152.385 56.1109 151.51 55.8039 150.866 55.1899C150.221 54.5759 149.899 53.7164 149.899 52.6112V47.3388H147.85V44.6219H148.425C149.024 44.6219 149.461 44.4531 149.737 44.1154C150.029 43.7624 150.175 43.3326 150.175 42.8261V41.2374H152.938V44.6219ZM159.723 52.2198C159.754 52.665 159.938 53.064 160.276 53.4171C160.614 53.7701 161.12 53.9466 161.796 53.9466C162.302 53.9466 162.678 53.8392 162.924 53.6243C163.169 53.3941 163.292 53.1254 163.292 52.8185C163.292 52.5575 163.2 52.3349 163.016 52.1508C162.832 51.9512 162.517 51.8054 162.072 51.7133L160.575 51.3679C159.47 51.1224 158.664 50.7002 158.158 50.1016C157.651 49.4877 157.398 48.7816 157.398 47.9834C157.398 47.4769 157.505 47.0011 157.72 46.5559C157.935 46.0955 158.227 45.7041 158.595 45.3817C158.979 45.044 159.424 44.7754 159.931 44.5759C160.452 44.3763 161.02 44.2766 161.634 44.2766C162.433 44.2766 163.108 44.3917 163.66 44.6219C164.213 44.8368 164.658 45.1131 164.996 45.4508C165.349 45.7885 165.61 46.1492 165.779 46.5329C165.948 46.9013 166.047 47.239 166.078 47.546L163.522 48.1216C163.492 47.9527 163.438 47.7839 163.361 47.615C163.3 47.4309 163.192 47.262 163.039 47.1085C162.885 46.955 162.693 46.8322 162.463 46.7401C162.248 46.648 161.98 46.602 161.657 46.602C161.258 46.602 160.913 46.7094 160.621 46.9243C160.345 47.1392 160.207 47.4078 160.207 47.7302C160.207 48.0064 160.299 48.229 160.483 48.3979C160.683 48.5667 160.936 48.6818 161.243 48.7432L162.855 49.0886C163.975 49.3188 164.812 49.7486 165.364 50.3779C165.932 51.0072 166.216 51.7363 166.216 52.5652C166.216 53.0257 166.124 53.4785 165.94 53.9236C165.771 54.3687 165.502 54.7678 165.134 55.1208C164.766 55.4739 164.305 55.7578 163.753 55.9727C163.2 56.1876 162.555 56.2951 161.819 56.2951C160.959 56.2951 160.238 56.1723 159.654 55.9267C159.071 55.6811 158.595 55.3818 158.227 55.0287C157.858 54.6757 157.582 54.2997 157.398 53.9006C157.229 53.4861 157.129 53.1178 157.099 52.7954L159.723 52.2198ZM180.605 52.7494C179.96 52.7494 179.453 52.6112 179.085 52.3349C178.717 52.0587 178.479 51.7287 178.371 51.3449C178.08 51.8207 177.688 52.1815 177.197 52.427C176.721 52.6726 176.222 52.7954 175.701 52.7954C175.194 52.7954 174.726 52.7033 174.296 52.5191C173.882 52.3196 173.513 52.0433 173.191 51.6903C172.884 51.3372 172.638 50.9151 172.454 50.424C172.285 49.9328 172.201 49.3956 172.201 48.8123C172.201 48.0602 172.324 47.3695 172.569 46.7401C172.815 46.0955 173.145 45.5429 173.559 45.0824C173.974 44.6219 174.45 44.2689 174.987 44.0233C175.539 43.7624 176.123 43.6319 176.737 43.6319C177.182 43.6319 177.619 43.7393 178.049 43.9542C178.494 44.1691 178.801 44.4991 178.97 44.9443L179.154 43.9312H181.341L180.144 49.5721C180.113 49.7256 180.098 49.8637 180.098 49.9865C180.098 50.186 180.16 50.3626 180.282 50.5161C180.405 50.6696 180.589 50.7463 180.835 50.7463C181.111 50.7463 181.387 50.6465 181.664 50.447C181.94 50.2474 182.178 49.9788 182.377 49.6411C182.592 49.2881 182.761 48.8737 182.884 48.3979C183.022 47.922 183.091 47.4078 183.091 46.8553C183.091 46.0417 182.938 45.2973 182.631 44.6219C182.339 43.9466 181.925 43.371 181.387 42.8951C180.866 42.404 180.229 42.0279 179.476 41.767C178.724 41.4907 177.903 41.3525 177.013 41.3525C176.046 41.3525 175.148 41.5214 174.319 41.8591C173.506 42.1814 172.8 42.6495 172.201 43.2635C171.602 43.8775 171.126 44.6143 170.773 45.4738C170.436 46.318 170.267 47.2543 170.267 48.2827C170.267 49.2344 170.42 50.1247 170.727 50.9535C171.05 51.767 171.503 52.4731 172.086 53.0717C172.684 53.6703 173.414 54.1462 174.273 54.4992C175.133 54.8369 176.107 55.0057 177.197 55.0057C177.934 55.0057 178.663 54.906 179.384 54.7064C180.106 54.4915 180.789 54.1385 181.434 53.6473L182.539 55.2129C182.232 55.4892 181.863 55.7425 181.434 55.9727C181.004 56.203 180.551 56.3948 180.075 56.5483C179.599 56.7172 179.116 56.84 178.625 56.9167C178.133 57.0088 177.658 57.0549 177.197 57.0549C175.846 57.0549 174.603 56.84 173.467 56.4102C172.347 55.9958 171.372 55.4125 170.543 54.6604C169.73 53.8929 169.093 52.9719 168.632 51.8975C168.172 50.823 167.941 49.6335 167.941 48.3288C167.941 46.9934 168.179 45.7731 168.655 44.668C169.131 43.5475 169.776 42.5881 170.589 41.79C171.418 40.9918 172.377 40.3702 173.467 39.925C174.572 39.4799 175.747 39.2574 176.99 39.2574C178.172 39.2574 179.269 39.4492 180.282 39.833C181.295 40.2167 182.17 40.7462 182.907 41.4216C183.644 42.097 184.219 42.9028 184.634 43.8391C185.064 44.7601 185.279 45.7578 185.279 46.8322C185.279 47.7071 185.148 48.5053 184.887 49.2267C184.626 49.9481 184.273 50.5698 183.828 51.0917C183.398 51.6135 182.899 52.0203 182.331 52.3119C181.779 52.5882 181.203 52.734 180.605 52.7494ZM178.463 47.5229C178.463 46.9704 178.325 46.5329 178.049 46.2106C177.788 45.8729 177.404 45.7041 176.898 45.7041C176.545 45.7041 176.222 45.7885 175.931 45.9573C175.655 46.1108 175.417 46.318 175.217 46.579C175.018 46.8399 174.856 47.1469 174.734 47.4999C174.626 47.853 174.572 48.2213 174.572 48.6051C174.572 49.219 174.695 49.7256 174.941 50.1247C175.202 50.5237 175.624 50.7233 176.207 50.7233C176.852 50.7233 177.381 50.424 177.796 49.8253C178.21 49.2114 178.433 48.4439 178.463 47.5229ZM193.824 39.6257C194.622 39.6257 195.328 39.7409 195.942 39.9711C196.556 40.186 197.07 40.493 197.485 40.8921C197.914 41.2758 198.237 41.7363 198.452 42.2735C198.682 42.8107 198.797 43.394 198.797 44.0233C198.797 44.8675 198.574 45.6043 198.129 46.2336C197.684 46.8629 197.116 47.2927 196.426 47.5229C196.825 47.615 197.193 47.7762 197.531 48.0064C197.884 48.2367 198.191 48.5207 198.452 48.8583C198.713 49.1807 198.92 49.5567 199.073 49.9865C199.227 50.4163 199.304 50.8844 199.304 51.391C199.304 52.051 199.181 52.665 198.935 53.2329C198.705 53.7855 198.367 54.2613 197.922 54.6604C197.492 55.0594 196.963 55.3741 196.333 55.6043C195.719 55.8346 195.029 55.9497 194.261 55.9497H187.953V39.6257H193.824ZM193.34 46.3717C194.077 46.3717 194.645 46.1876 195.044 45.8192C195.459 45.4508 195.666 44.9519 195.666 44.3226C195.666 43.6933 195.466 43.2021 195.067 42.8491C194.683 42.4807 194.1 42.2965 193.317 42.2965H191.084V46.3717H193.34ZM193.663 53.302C194.445 53.302 195.052 53.1178 195.482 52.7494C195.911 52.3656 196.126 51.8438 196.126 51.1838C196.126 50.5391 195.919 50.0172 195.505 49.6181C195.105 49.2037 194.507 48.9965 193.709 48.9965H191.084V53.302H193.663ZM208.637 47.6611C208.33 47.5997 208.023 47.569 207.716 47.569C207.317 47.569 206.941 47.6227 206.588 47.7302C206.235 47.8376 205.928 48.0141 205.667 48.2597C205.406 48.5053 205.191 48.8353 205.023 49.2497C204.869 49.6488 204.792 50.1553 204.792 50.7693V55.9497H201.73V44.6219H204.7V46.3027C204.869 45.9343 205.084 45.635 205.345 45.4047C205.621 45.1592 205.905 44.975 206.197 44.8522C206.504 44.7294 206.803 44.645 207.095 44.5989C207.402 44.5529 207.678 44.5298 207.924 44.5298C208.046 44.5298 208.162 44.5375 208.269 44.5529C208.392 44.5529 208.515 44.5605 208.637 44.5759V47.6611ZM215.767 53.5092C216.136 53.5092 216.496 53.4401 216.849 53.302C217.202 53.1638 217.509 52.9643 217.77 52.7033C218.031 52.427 218.238 52.0894 218.392 51.6903C218.561 51.2912 218.645 50.823 218.645 50.2858C218.645 49.7486 218.561 49.2804 218.392 48.8814C218.238 48.4823 218.031 48.1523 217.77 47.8913C217.509 47.615 217.202 47.4078 216.849 47.2697C216.496 47.1315 216.136 47.0625 215.767 47.0625C215.399 47.0625 215.038 47.1315 214.685 47.2697C214.332 47.4078 214.025 47.615 213.764 47.8913C213.503 48.1523 213.288 48.4823 213.119 48.8814C212.966 49.2804 212.889 49.7486 212.889 50.2858C212.889 50.823 212.966 51.2912 213.119 51.6903C213.288 52.0894 213.503 52.427 213.764 52.7033C214.025 52.9643 214.332 53.1638 214.685 53.302C215.038 53.4401 215.399 53.5092 215.767 53.5092ZM215.767 44.2766C216.611 44.2766 217.394 44.4301 218.116 44.7371C218.852 45.0287 219.482 45.4431 220.004 45.9803C220.541 46.5022 220.955 47.1315 221.247 47.8683C221.554 48.6051 221.707 49.4109 221.707 50.2858C221.707 51.1607 221.554 51.9666 221.247 52.7033C220.955 53.4247 220.541 54.0541 220.004 54.5913C219.482 55.1285 218.852 55.5506 218.116 55.8576C217.394 56.1492 216.611 56.2951 215.767 56.2951C214.923 56.2951 214.133 56.1492 213.396 55.8576C212.674 55.5506 212.045 55.1285 211.508 54.5913C210.986 54.0541 210.572 53.4247 210.265 52.7033C209.973 51.9666 209.827 51.1607 209.827 50.2858C209.827 49.4109 209.973 48.6051 210.265 47.8683C210.572 47.1315 210.986 46.5022 211.508 45.9803C212.045 45.4431 212.674 45.0287 213.396 44.7371C214.133 44.4301 214.923 44.2766 215.767 44.2766ZM233.479 44.6219L235.92 51.9205L238.015 44.6219H241.054L237.508 55.9497H234.446L231.799 48.2137L229.197 55.9497H226.089L222.474 44.6219H225.697L227.792 51.8975L230.256 44.6219H233.479ZM246.029 55.9497H242.966V44.6219H245.937V46.0264C246.29 45.4431 246.765 45.0133 247.364 44.7371C247.978 44.4608 248.592 44.3226 249.206 44.3226C249.912 44.3226 250.518 44.4454 251.025 44.691C251.547 44.9212 251.976 45.2359 252.314 45.635C252.652 46.0341 252.897 46.5099 253.051 47.0625C253.22 47.615 253.304 48.1983 253.304 48.8123V55.9497H250.242V49.3418C250.242 48.6972 250.073 48.1599 249.735 47.7302C249.413 47.3004 248.884 47.0855 248.147 47.0855C247.471 47.0855 246.95 47.3157 246.581 47.7762C246.213 48.2213 246.029 48.7739 246.029 49.4339V55.9497Z" fill="white"/>
<path d="M32.1006 86.9572C32.1006 85.8976 32.9596 85.0386 34.0192 85.0386H68.5551C69.6148 85.0386 70.4738 85.8976 70.4738 86.9572V108.254H32.1006V86.9572Z" fill="white"/>
<path opacity="0.4" d="M72.3926 86.9572C72.3926 85.8976 73.2516 85.0386 74.3112 85.0386H108.847C109.907 85.0386 110.766 85.8976 110.766 86.9572V107.103H72.3926V86.9572Z" fill="white"/>
<path opacity="0.4" d="M112.685 86.9572C112.685 85.8976 113.544 85.0386 114.603 85.0386H149.139C150.199 85.0386 151.058 85.8976 151.058 86.9572V107.103H112.685V86.9572Z" fill="white"/>
<path opacity="0.4" d="M152.977 86.9572C152.977 85.8976 153.836 85.0386 154.895 85.0386H189.431C190.491 85.0386 191.35 85.8976 191.35 86.9572V107.103H152.977V86.9572Z" fill="white"/>
<path opacity="0.4" d="M193.269 86.9572C193.269 85.8976 194.128 85.0386 195.187 85.0386H229.723C230.783 85.0386 231.642 85.8976 231.642 86.9572V107.103H193.269V86.9572Z" fill="white"/>
<path d="M32.1006 108.254H319.9V148.546C319.9 149.605 319.041 150.464 317.981 150.464H34.0193C32.9596 150.464 32.1006 149.605 32.1006 148.546V108.254Z" fill="white"/>
<rect x="47.4502" y="123.603" width="77.875" height="11.512" rx="1.91866" fill="#F0F3F5"/>
<path d="M32.1006 160.058C32.1006 158.998 32.9596 158.139 34.0192 158.139H233.56C234.62 158.139 235.479 158.998 235.479 160.058V423.22C235.479 424.28 234.62 425.139 233.56 425.139H34.0192C32.9596 425.139 32.1006 424.28 32.1006 423.22V160.058Z" fill="white"/>
<mask id="path-12-inside-1_212_943" fill="white">
<rect x="47.4502" y="173.488" width="38.3732" height="38.3732" rx="1.91866"/>
</mask>
<rect x="47.4502" y="173.488" width="38.3732" height="38.3732" rx="1.91866" fill="#F0F3F5" fill-opacity="0.5" stroke="#F0F2F3" stroke-width="4" mask="url(#path-12-inside-1_212_943)"/>
<rect x="47.4502" y="235.938" width="38.3732" height="38.3732" rx="1.91866" fill="#F0F3F5"/>
<rect x="47.4502" y="298.389" width="8.09961" height="8.09961" rx="1.91866" fill="#F0F3F5"/>
<rect x="57.5498" y="298.389" width="8.09961" height="8.09961" rx="1.91866" fill="#F0F3F5"/>
<rect x="67.6494" y="298.389" width="8.09961" height="8.09961" rx="1.91866" fill="#F0F3F5"/>
<rect x="93.498" y="173.488" width="80.9388" height="5.75598" rx="1.91866" fill="#F0F3F5"/>
<rect x="93.498" y="183.082" width="126.632" height="11.512" rx="1.91866" fill="#007DA0"/>
<rect x="93.498" y="198.431" width="126.632" height="7.67464" rx="1.91866" fill="#ACE5F3"/>
<rect x="93.498" y="209.943" width="110.323" height="7.67464" rx="1.91866" fill="#ACE5F3"/>
<rect x="93.498" y="229.455" width="126.632" height="5.75598" rx="1.91866" fill="#F0F3F5"/>
<rect x="93.498" y="239.21" width="107.504" height="5.75598" rx="1.91866" fill="#F0F3F5"/>
<rect x="93.498" y="248.967" width="120.443" height="5.75598" rx="1.91866" fill="#F0F3F5"/>
<rect x="93.498" y="258.723" width="126.632" height="5.75598" rx="1.91866" fill="#F0F3F5"/>
<rect x="93.498" y="268.479" width="114.232" height="5.75598" rx="1.91866" fill="#F0F3F5"/>
<rect x="93.498" y="278.234" width="70.7598" height="5.75598" rx="1.91866" fill="#F0F3F5"/>
<rect x="93.498" y="295.828" width="36.0918" height="11.512" rx="1.91866" fill="#007DA0"/>
<rect x="93.498" y="319.177" width="99.6426" height="5.75598" rx="1.91866" fill="#F0F3F5"/>
<rect x="93.498" y="328.933" width="84.5915" height="5.75598" rx="1.91866" fill="#F0F3F5"/>
<rect x="93.498" y="338.689" width="94.7732" height="5.75598" rx="1.91866" fill="#F0F3F5"/>
<rect x="93.498" y="348.445" width="99.6426" height="5.75598" rx="1.91866" fill="#F0F3F5"/>
<rect x="93.498" y="358.201" width="89.886" height="5.75598" rx="1.91866" fill="#F0F3F5"/>
<rect x="93.498" y="375.957" width="20.3652" height="5.75598" rx="1.91866" fill="#F0F3F5"/>
<rect x="117.863" y="375.957" width="18.7227" height="5.75598" rx="1.91866" fill="#F0F3F5"/>
<rect x="140.586" y="375.957" width="26.2773" height="5.75598" rx="1.91866" fill="#F0F3F5"/>
<rect x="170.863" y="375.957" width="18.7227" height="5.75598" rx="1.91866" fill="#F0F3F5"/>
<ellipse cx="44.8619" cy="303.5" rx="13.5309" ry="12.6852" fill="#FFC72C" fill-opacity="0.2"/>
<path d="M57.8928 303.5C57.8928 310.2 52.0896 315.685 44.8619 315.685C37.6343 315.685 31.8311 310.2 31.8311 303.5C31.8311 296.8 37.6343 291.315 44.8619 291.315C52.0896 291.315 57.8928 296.8 57.8928 303.5Z" stroke="#FFC72C" stroke-opacity="0.3"/>
<path d="M4.26986 303.723C4.26986 305.196 5.46376 306.39 6.93652 306.39C8.40928 306.39 9.60319 305.196 9.60319 303.723C9.60319 302.25 8.40928 301.056 6.93652 301.056C5.46376 301.056 4.26986 302.25 4.26986 303.723ZM6.93652 304.223H30.5623V303.223H6.93652V304.223ZM30.5623 304.223H43.8632V303.223H30.5623V304.223Z" fill="#FFC72C"/>
<ellipse opacity="0.4" cx="44.8618" cy="303.5" rx="8.74074" ry="8.19444" fill="#FFC72C"/>
<ellipse cx="44.8624" cy="303.5" rx="2.2716" ry="2.12963" fill="#FFC72C"/>
<ellipse cx="91.8619" cy="378.5" rx="13.5309" ry="12.6852" fill="#FFC72C" fill-opacity="0.2"/>
<path d="M104.893 378.5C104.893 385.2 99.0896 390.685 91.8619 390.685C84.6343 390.685 78.8311 385.2 78.8311 378.5C78.8311 371.8 84.6343 366.315 91.8619 366.315C99.0896 366.315 104.893 371.8 104.893 378.5Z" stroke="#FFC72C" stroke-opacity="0.3"/>
<path d="M51.2699 378.723C51.2699 380.196 52.4638 381.39 53.9365 381.39C55.4093 381.39 56.6032 380.196 56.6032 378.723C56.6032 377.25 55.4093 376.056 53.9365 376.056C52.4638 376.056 51.2699 377.25 51.2699 378.723ZM53.9365 379.223H77.5623V378.223H53.9365V379.223ZM77.5623 379.223H90.8632V378.223H77.5623V379.223Z" fill="#FFC72C"/>
<ellipse opacity="0.4" cx="91.8618" cy="378.5" rx="8.74074" ry="8.19444" fill="#FFC72C"/>
<ellipse cx="91.8624" cy="378.5" rx="2.2716" ry="2.12963" fill="#FFC72C"/>
<ellipse cx="48.8619" cy="238.5" rx="13.5309" ry="12.6852" fill="#FFC72C" fill-opacity="0.2"/>
<path d="M61.8928 238.5C61.8928 245.2 56.0896 250.685 48.8619 250.685C41.6343 250.685 35.8311 245.2 35.8311 238.5C35.8311 231.8 41.6343 226.315 48.8619 226.315C56.0896 226.315 61.8928 231.8 61.8928 238.5Z" stroke="#FFC72C" stroke-opacity="0.3"/>
<path d="M8.26986 238.723C8.26986 240.196 9.46376 241.39 10.9365 241.39C12.4093 241.39 13.6032 240.196 13.6032 238.723C13.6032 237.25 12.4093 236.056 10.9365 236.056C9.46376 236.056 8.26986 237.25 8.26986 238.723ZM10.9365 239.223H34.5623V238.223H10.9365V239.223ZM34.5623 239.223H47.8632V238.223H34.5623V239.223Z" fill="#FFC72C"/>
<ellipse opacity="0.4" cx="48.8618" cy="238.5" rx="8.74074" ry="8.19444" fill="#FFC72C"/>
<ellipse cx="48.8624" cy="238.5" rx="2.2716" ry="2.12963" fill="#FFC72C"/>
<ellipse cx="178.862" cy="167.5" rx="13.5309" ry="12.6852" fill="#FFC72C" fill-opacity="0.2"/>
<path d="M191.893 167.5C191.893 174.2 186.09 179.685 178.862 179.685C171.634 179.685 165.831 174.2 165.831 167.5C165.831 160.8 171.634 155.315 178.862 155.315C186.09 155.315 191.893 160.8 191.893 167.5Z" stroke="#FFC72C" stroke-opacity="0.3"/>
<path d="M138.27 167.723C138.27 169.196 139.464 170.39 140.937 170.39C142.409 170.39 143.603 169.196 143.603 167.723C143.603 166.25 142.409 165.056 140.937 165.056C139.464 165.056 138.27 166.25 138.27 167.723ZM140.937 168.223H164.562V167.223H140.937V168.223ZM164.562 168.223H177.863V167.223H164.562V168.223Z" fill="#FFC72C"/>
<ellipse opacity="0.4" cx="178.862" cy="167.5" rx="8.74074" ry="8.19444" fill="#FFC72C"/>
<ellipse cx="178.862" cy="167.5" rx="2.2716" ry="2.12963" fill="#FFC72C"/>
<ellipse cx="142.862" cy="290.5" rx="13.5309" ry="12.6852" fill="#FFC72C" fill-opacity="0.2"/>
<path d="M155.893 290.5C155.893 297.2 150.09 302.685 142.862 302.685C135.634 302.685 129.831 297.2 129.831 290.5C129.831 283.8 135.634 278.315 142.862 278.315C150.09 278.315 155.893 283.8 155.893 290.5Z" stroke="#FFC72C" stroke-opacity="0.3"/>
<path d="M102.27 290.723C102.27 292.196 103.464 293.39 104.937 293.39C106.409 293.39 107.603 292.196 107.603 290.723C107.603 289.25 106.409 288.056 104.937 288.056C103.464 288.056 102.27 289.25 102.27 290.723ZM104.937 291.223H128.562V290.223H104.937V291.223ZM128.562 291.223H141.863V290.223H128.562V291.223Z" fill="#FFC72C"/>
<ellipse opacity="0.4" cx="142.862" cy="290.5" rx="8.74074" ry="8.19444" fill="#FFC72C"/>
<ellipse cx="142.862" cy="290.5" rx="2.2716" ry="2.12963" fill="#FFC72C"/>
<rect x="243.153" y="158.139" width="76.7464" height="74.4487" rx="1.91866" fill="white"/>
<rect x="243.153" y="240.588" width="76.7464" height="162.912" rx="1.91866" fill="white"/>
<ellipse cx="261.862" cy="259.5" rx="13.5309" ry="12.6852" fill="#FFC72C" fill-opacity="0.2"/>
<path d="M274.893 259.5C274.893 266.2 269.09 271.685 261.862 271.685C254.634 271.685 248.831 266.2 248.831 259.5C248.831 252.8 254.634 247.315 261.862 247.315C269.09 247.315 274.893 252.8 274.893 259.5Z" stroke="#FFC72C" stroke-opacity="0.3"/>
<path d="M221.27 259.723C221.27 261.196 222.464 262.39 223.937 262.39C225.409 262.39 226.603 261.196 226.603 259.723C226.603 258.25 225.409 257.056 223.937 257.056C222.464 257.056 221.27 258.25 221.27 259.723ZM223.937 260.223H247.562V259.223H223.937V260.223ZM247.562 260.223H260.863V259.223H247.562V260.223Z" fill="#FFC72C"/>
<ellipse opacity="0.4" cx="261.862" cy="259.5" rx="8.74074" ry="8.19444" fill="#FFC72C"/>
<ellipse cx="261.862" cy="259.5" rx="2.2716" ry="2.12963" fill="#FFC72C"/>
<ellipse cx="293.862" cy="189.5" rx="13.5309" ry="12.6852" fill="#FFC72C" fill-opacity="0.2"/>
<path d="M306.893 189.5C306.893 196.2 301.09 201.685 293.862 201.685C286.634 201.685 280.831 196.2 280.831 189.5C280.831 182.8 286.634 177.315 293.862 177.315C301.09 177.315 306.893 182.8 306.893 189.5Z" stroke="#FFC72C" stroke-opacity="0.3"/>
<path d="M253.27 189.723C253.27 191.196 254.464 192.39 255.937 192.39C257.409 192.39 258.603 191.196 258.603 189.723C258.603 188.25 257.409 187.056 255.937 187.056C254.464 187.056 253.27 188.25 253.27 189.723ZM255.937 190.223H279.562V189.223H255.937V190.223ZM279.562 190.223H292.863V189.223H279.562V190.223Z" fill="#FFC72C"/>
<ellipse opacity="0.4" cx="293.862" cy="189.5" rx="8.74074" ry="8.19444" fill="#FFC72C"/>
<ellipse cx="293.862" cy="189.5" rx="2.2716" ry="2.12963" fill="#FFC72C"/>
</svg>
