<svg width="352" height="252" viewBox="0 0 352 252" fill="none" xmlns="http://www.w3.org/2000/svg">
<rect width="352" height="218" rx="5.10545" fill="#008672" fill-opacity="0.08"/>
<rect x="8.11719" y="10.2109" width="335.766" height="60" rx="2.55273" fill="#008672"/>
<path d="M32.1006 51.0244C32.1006 49.9647 32.9596 49.1057 34.0192 49.1057H68.5551C69.6148 49.1057 70.4738 49.9647 70.4738 51.0244V72.3209H32.1006V51.0244Z" fill="white"/>
<path opacity="0.4" d="M72.3926 51.0244C72.3926 49.9647 73.2516 49.1057 74.3112 49.1057H108.847C109.907 49.1057 110.766 49.9647 110.766 51.0244V71.1703H72.3926V51.0244Z" fill="white"/>
<path opacity="0.4" d="M112.685 51.0244C112.685 49.9647 113.544 49.1057 114.603 49.1057H149.139C150.199 49.1057 151.058 49.9647 151.058 51.0244V71.1703H112.685V51.0244Z" fill="white"/>
<path opacity="0.4" d="M152.977 51.0244C152.977 49.9647 153.836 49.1057 154.895 49.1057H189.431C190.491 49.1057 191.35 49.9647 191.35 51.0244V71.1703H152.977V51.0244Z" fill="white"/>
<path opacity="0.4" d="M193.269 51.0244C193.269 49.9647 194.128 49.1057 195.187 49.1057H229.723C230.783 49.1057 231.642 49.9647 231.642 51.0244V71.1703H193.269V51.0244Z" fill="white"/>
<path d="M32.1006 72.3208H319.9V249.133C319.9 250.193 319.041 251.052 317.981 251.052H34.0193C32.9596 251.052 32.1006 250.193 32.1006 249.133V72.3208Z" fill="white"/>
<path d="M47.4502 89.6702C47.4502 88.5656 48.3456 87.6702 49.4502 87.6702H294.943C296.048 87.6702 296.943 88.5656 296.943 89.6702V233.702C296.943 234.807 296.048 235.702 294.943 235.702H49.4502C48.3456 235.702 47.4502 234.807 47.4502 233.702V89.6702Z" fill="white"/>
<g clip-path="url(#clip0_199_701)">
<circle cx="50.4652" cy="106.685" r="3.01502" fill="#F0F2F3"/>
<rect x="57.4805" y="103.67" width="61.3718" height="6.20322" rx="2" fill="#008672"/>
<circle cx="50.4652" cy="118.888" r="3.01502" fill="#F0F2F3"/>
<rect x="57.4805" y="115.873" width="39.0027" height="6.20322" rx="2" fill="#008672"/>
<circle cx="50.4652" cy="131.092" r="3.01502" fill="#F0F2F3"/>
<rect x="57.4805" y="128.077" width="47.3522" height="6.20322" rx="2" fill="#008672"/>
<circle cx="50.4652" cy="143.295" r="3.01502" fill="#F0F2F3"/>
<rect x="57.4805" y="140.28" width="43.9209" height="6.20322" rx="2" fill="#008672"/>
<circle cx="50.4652" cy="155.498" r="3.01502" fill="#F0F2F3"/>
<rect x="57.4805" y="152.483" width="55.0154" height="6.20322" rx="2" fill="#008672"/>
<circle cx="50.4652" cy="167.701" r="3.01502" fill="#F0F2F3"/>
<rect x="57.4805" y="164.686" width="32.3688" height="6.20322" rx="2" fill="#008672"/>
<circle cx="50.4652" cy="179.904" r="3.01502" fill="#F0F2F3"/>
<rect x="57.4805" y="176.889" width="50.0279" height="6.20322" rx="2" fill="#008672"/>
<circle cx="50.4652" cy="192.108" r="3.01502" fill="#F0F2F3"/>
<rect x="57.4805" y="189.093" width="39.0027" height="6.20322" rx="2" fill="#008672"/>
<circle cx="50.4652" cy="204.311" r="3.01502" fill="#F0F2F3"/>
<rect x="57.4805" y="201.296" width="47.3522" height="6.20322" rx="2" fill="#008672"/>
<circle cx="50.4652" cy="216.514" r="3.01502" fill="#F0F2F3"/>
<rect x="57.4805" y="213.499" width="43.9209" height="6.20322" rx="2" fill="#008672"/>
<circle cx="3.01502" cy="3.01502" r="3.01502" transform="matrix(1 0 0 -1 142.853 219.702)" fill="#F0F2F3"/>
<rect width="55.0154" height="6.20322" rx="2" transform="matrix(1 0 0 -1 152.883 219.702)" fill="#008672"/>
<circle cx="3.01502" cy="3.01502" r="3.01502" transform="matrix(1 0 0 -1 142.853 207.499)" fill="#F0F2F3"/>
<rect width="43.9209" height="6.20322" rx="2" transform="matrix(1 0 0 -1 152.883 207.499)" fill="#008672"/>
<circle cx="3.01502" cy="3.01502" r="3.01502" transform="matrix(1 0 0 -1 142.853 195.296)" fill="#F0F2F3"/>
<rect width="32.3688" height="6.20322" rx="2" transform="matrix(1 0 0 -1 152.883 195.296)" fill="#008672"/>
<circle cx="3.01502" cy="3.01502" r="3.01502" transform="matrix(1 0 0 -1 142.853 183.093)" fill="#F0F2F3"/>
<rect width="50.0279" height="6.20322" rx="2" transform="matrix(1 0 0 -1 152.883 183.093)" fill="#008672"/>
<circle cx="3.01502" cy="3.01502" r="3.01502" transform="matrix(1 0 0 -1 142.853 170.89)" fill="#F0F2F3"/>
<rect width="39.0027" height="6.20322" rx="2" transform="matrix(1 0 0 -1 152.883 170.89)" fill="#008672"/>
<circle cx="3.01502" cy="3.01502" r="3.01502" transform="matrix(1 0 0 -1 142.853 158.686)" fill="#F0F2F3"/>
<rect width="47.3522" height="6.20322" rx="2" transform="matrix(1 0 0 -1 152.883 158.686)" fill="#008672"/>
<circle cx="145.868" cy="143.295" r="3.01502" fill="#F0F2F3"/>
<rect x="152.883" y="140.28" width="43.9209" height="6.20322" rx="2" fill="#008672"/>
<circle cx="145.868" cy="131.092" r="3.01502" fill="#F0F2F3"/>
<rect x="152.883" y="128.077" width="55.0154" height="6.20322" rx="2" fill="#008672"/>
<circle cx="145.868" cy="118.889" r="3.01502" fill="#F0F2F3"/>
<rect x="152.883" y="115.874" width="32.3688" height="6.20322" rx="2" fill="#008672"/>
<circle cx="145.868" cy="106.685" r="3.01502" fill="#F0F2F3"/>
<rect x="152.883" y="103.67" width="50.0279" height="6.20322" rx="2" fill="#008672"/>
<circle cx="3.01502" cy="3.01502" r="3.01502" transform="matrix(1 0 0 -1 231.897 207.499)" fill="#F0F2F3"/>
<rect width="55.0154" height="6.20322" rx="2" transform="matrix(1 0 0 -1 241.928 207.499)" fill="#008672"/>
<circle cx="3.01502" cy="3.01502" r="3.01502" transform="matrix(1 0 0 -1 231.897 195.296)" fill="#F0F2F3"/>
<rect width="50.0279" height="6.20322" rx="2" transform="matrix(1 0 0 -1 241.928 195.296)" fill="#008672"/>
<circle cx="3.01502" cy="3.01502" r="3.01502" transform="matrix(1 0 0 -1 231.897 183.093)" fill="#F0F2F3"/>
<rect width="32.3688" height="6.20322" rx="2" transform="matrix(1 0 0 -1 241.928 183.093)" fill="#008672"/>
<circle cx="3.01502" cy="3.01502" r="3.01502" transform="matrix(1 0 0 -1 231.897 170.889)" fill="#F0F2F3"/>
<rect width="47.3522" height="6.20322" rx="2" transform="matrix(1 0 0 -1 241.928 170.889)" fill="#008672"/>
<circle cx="3.01502" cy="3.01502" r="3.01502" transform="matrix(1 0 0 -1 231.897 158.686)" fill="#F0F2F3"/>
<rect width="39.0027" height="6.20322" rx="2" transform="matrix(1 0 0 -1 241.928 158.686)" fill="#008672"/>
<circle cx="234.912" cy="143.295" r="3.01502" fill="#F0F2F3"/>
<rect x="241.928" y="140.28" width="43.9209" height="6.20322" rx="2" fill="#008672"/>
<circle cx="234.912" cy="131.091" r="3.01502" fill="#F0F2F3"/>
<rect x="241.928" y="128.076" width="55.0154" height="6.20322" rx="2" fill="#008672"/>
<circle cx="234.912" cy="118.888" r="3.01502" fill="#F0F2F3"/>
<rect x="241.928" y="115.873" width="32.3688" height="6.20322" rx="2" fill="#008672"/>
<circle cx="234.912" cy="106.685" r="3.01502" fill="#F0F2F3"/>
<rect x="241.928" y="103.67" width="50.0279" height="6.20322" rx="2" fill="#008672"/>
</g>
<defs>
<clipPath id="clip0_199_701">
<rect width="249.493" height="116.032" fill="white" transform="translate(47.4502 103.67)"/>
</clipPath>
</defs>
</svg>
