<svg width="332" height="150" viewBox="0 0 332 150" fill="none" xmlns="http://www.w3.org/2000/svg">
<rect x="105.096" width="122.222" height="104.514" rx="1.77273" fill="#EAEAEA" fill-opacity="0.6"/>
<rect x="107.915" y="2.65576" width="116.585" height="33.3101" rx="0.886364" fill="#008672"/>
<path opacity="0.3" d="M138.478 18.9819V13.3139H142.028V14.3532H139.582V15.6483H141.796V16.6316H139.582V17.9427H142.028V18.9819H138.478ZM145.14 18.9819H144.077L142.47 15.0487H143.637L144.613 17.6868L145.548 15.0487H146.667L145.14 18.9819ZM149.731 16.5676C149.726 16.4717 149.704 16.3784 149.667 16.2878C149.635 16.1919 149.582 16.1093 149.507 16.04C149.438 15.9654 149.347 15.9067 149.235 15.8641C149.129 15.8161 149.001 15.7922 148.852 15.7922C148.713 15.7922 148.591 15.8161 148.484 15.8641C148.377 15.9121 148.287 15.9734 148.212 16.048C148.138 16.1226 148.079 16.2052 148.036 16.2958C147.999 16.3864 147.978 16.477 147.972 16.5676H149.731ZM150.722 17.8547C150.674 18.0253 150.597 18.1878 150.491 18.3424C150.389 18.4916 150.264 18.6222 150.115 18.7341C149.966 18.846 149.79 18.934 149.587 18.9979C149.39 19.0672 149.172 19.1018 148.932 19.1018C148.66 19.1018 148.401 19.0565 148.156 18.9659C147.911 18.87 147.695 18.7314 147.509 18.5502C147.322 18.369 147.173 18.1478 147.061 17.8867C146.954 17.6255 146.901 17.3298 146.901 16.9993C146.901 16.6849 146.954 16.3997 147.061 16.1439C147.168 15.8881 147.309 15.6722 147.485 15.4964C147.666 15.3152 147.874 15.1766 148.108 15.0807C148.343 14.9794 148.585 14.9288 148.836 14.9288C149.449 14.9288 149.926 15.11 150.267 15.4724C150.608 15.8348 150.778 16.3331 150.778 16.9673C150.778 17.042 150.776 17.1139 150.77 17.1832C150.765 17.2471 150.762 17.2845 150.762 17.2951H147.948C147.954 17.423 147.983 17.5429 148.036 17.6549C148.095 17.7615 148.167 17.8547 148.252 17.9347C148.343 18.0146 148.447 18.0786 148.564 18.1265C148.681 18.1692 148.806 18.1905 148.94 18.1905C149.19 18.1905 149.385 18.1345 149.523 18.0226C149.667 17.9107 149.771 17.7668 149.835 17.5909L150.722 17.8547ZM152.679 18.9819H151.616V15.0487H152.647V15.5363C152.77 15.3338 152.935 15.1846 153.143 15.0886C153.356 14.9927 153.569 14.9448 153.782 14.9448C154.027 14.9448 154.238 14.9874 154.414 15.0727C154.595 15.1526 154.744 15.2619 154.861 15.4004C154.979 15.539 155.064 15.7042 155.117 15.8961C155.176 16.088 155.205 16.2905 155.205 16.5037V18.9819H154.142V16.6875C154.142 16.4637 154.083 16.2772 153.966 16.1279C153.854 15.9787 153.67 15.9041 153.414 15.9041C153.18 15.9041 152.999 15.984 152.871 16.1439C152.743 16.2985 152.679 16.4903 152.679 16.7195V18.9819ZM157.595 15.0487H158.387V15.992H157.595V17.6389C157.595 17.8094 157.633 17.9293 157.707 17.9986C157.787 18.0626 157.905 18.0946 158.059 18.0946C158.123 18.0946 158.187 18.0919 158.251 18.0866C158.315 18.0812 158.36 18.0732 158.387 18.0626V18.942C158.339 18.9633 158.264 18.9846 158.163 19.0059C158.067 19.0272 157.942 19.0379 157.787 19.0379C157.404 19.0379 157.1 18.9313 156.876 18.7181C156.652 18.5049 156.54 18.2065 156.54 17.8227V15.992H155.829V15.0487H156.028C156.236 15.0487 156.388 14.9901 156.484 14.8728C156.585 14.7502 156.636 14.601 156.636 14.4251V13.8735H157.595V15.0487ZM159.952 17.6868C159.962 17.8414 160.026 17.98 160.143 18.1025C160.261 18.2251 160.437 18.2864 160.671 18.2864C160.847 18.2864 160.977 18.2491 161.063 18.1745C161.148 18.0946 161.191 18.0013 161.191 17.8947C161.191 17.8041 161.159 17.7268 161.095 17.6629C161.031 17.5936 160.921 17.5429 160.767 17.511L160.247 17.391C159.864 17.3058 159.584 17.1592 159.408 16.9514C159.232 16.7382 159.144 16.493 159.144 16.2159C159.144 16.04 159.181 15.8748 159.256 15.7202C159.331 15.5603 159.432 15.4244 159.56 15.3125C159.693 15.1952 159.848 15.102 160.023 15.0327C160.205 14.9634 160.402 14.9288 160.615 14.9288C160.892 14.9288 161.127 14.9687 161.319 15.0487C161.51 15.1233 161.665 15.2192 161.782 15.3365C161.905 15.4537 161.995 15.579 162.054 15.7122C162.113 15.8401 162.147 15.9574 162.158 16.064L161.271 16.2638C161.26 16.2052 161.241 16.1466 161.215 16.088C161.193 16.024 161.156 15.9654 161.103 15.9121C161.049 15.8588 160.983 15.8161 160.903 15.7842C160.828 15.7522 160.735 15.7362 160.623 15.7362C160.484 15.7362 160.365 15.7735 160.263 15.8481C160.167 15.9227 160.119 16.016 160.119 16.1279C160.119 16.2239 160.151 16.3011 160.215 16.3598C160.285 16.4184 160.373 16.4584 160.479 16.4797L161.039 16.5996C161.428 16.6795 161.718 16.8288 161.91 17.0473C162.107 17.2658 162.206 17.519 162.206 17.8068C162.206 17.9666 162.174 18.1239 162.11 18.2784C162.051 18.433 161.958 18.5716 161.83 18.6941C161.702 18.8167 161.542 18.9153 161.351 18.9899C161.159 19.0645 160.935 19.1018 160.679 19.1018C160.381 19.1018 160.13 19.0592 159.928 18.9739C159.725 18.8887 159.56 18.7847 159.432 18.6622C159.304 18.5396 159.208 18.409 159.144 18.2704C159.085 18.1265 159.051 17.9986 159.04 17.8867L159.952 17.6868ZM167.202 17.8707C166.978 17.8707 166.802 17.8227 166.674 17.7268C166.546 17.6309 166.464 17.5163 166.426 17.383C166.325 17.5483 166.189 17.6735 166.019 17.7588C165.854 17.8441 165.68 17.8867 165.499 17.8867C165.323 17.8867 165.161 17.8547 165.011 17.7908C164.868 17.7215 164.74 17.6255 164.628 17.503C164.521 17.3804 164.436 17.2338 164.372 17.0633C164.313 16.8927 164.284 16.7062 164.284 16.5037C164.284 16.2425 164.327 16.0027 164.412 15.7842C164.497 15.5603 164.612 15.3685 164.756 15.2086C164.9 15.0487 165.065 14.9261 165.251 14.8408C165.443 14.7502 165.646 14.7049 165.859 14.7049C166.013 14.7049 166.165 14.7422 166.315 14.8168C166.469 14.8915 166.576 15.006 166.634 15.1606L166.698 14.8088H167.458L167.042 16.7675C167.031 16.8208 167.026 16.8687 167.026 16.9114C167.026 16.9807 167.047 17.042 167.09 17.0952C167.133 17.1485 167.197 17.1752 167.282 17.1752C167.378 17.1752 167.474 17.1406 167.57 17.0713C167.666 17.002 167.748 16.9087 167.818 16.7915C167.892 16.6689 167.951 16.525 167.993 16.3598C168.041 16.1945 168.065 16.016 168.065 15.8241C168.065 15.5417 168.012 15.2832 167.905 15.0487C167.804 14.8142 167.66 14.6143 167.474 14.4491C167.293 14.2785 167.071 14.148 166.81 14.0574C166.549 13.9614 166.264 13.9135 165.955 13.9135C165.619 13.9135 165.307 13.9721 165.019 14.0893C164.737 14.2013 164.492 14.3638 164.284 14.577C164.076 14.7902 163.911 15.046 163.788 15.3445C163.671 15.6376 163.612 15.9627 163.612 16.3198C163.612 16.6502 163.666 16.9593 163.772 17.2471C163.884 17.5296 164.041 17.7748 164.244 17.9826C164.452 18.1905 164.705 18.3557 165.003 18.4783C165.302 18.5955 165.64 18.6542 166.019 18.6542C166.275 18.6542 166.528 18.6195 166.778 18.5502C167.029 18.4756 167.266 18.353 167.49 18.1825L167.873 18.7261C167.767 18.822 167.639 18.91 167.49 18.9899C167.341 19.0699 167.183 19.1365 167.018 19.1898C166.853 19.2484 166.685 19.2911 166.514 19.3177C166.344 19.3497 166.179 19.3657 166.019 19.3657C165.55 19.3657 165.118 19.2911 164.724 19.1418C164.335 18.9979 163.996 18.7954 163.708 18.5342C163.426 18.2678 163.205 17.948 163.045 17.5749C162.885 17.2018 162.805 16.7888 162.805 16.3358C162.805 15.8721 162.888 15.4484 163.053 15.0647C163.218 14.6756 163.442 14.3425 163.724 14.0654C164.012 13.7882 164.345 13.5724 164.724 13.4178C165.107 13.2633 165.515 13.186 165.947 13.186C166.357 13.186 166.738 13.2526 167.09 13.3858C167.442 13.5191 167.746 13.7029 168.001 13.9375C168.257 14.172 168.457 14.4518 168.601 14.7769C168.75 15.0966 168.825 15.4431 168.825 15.8161C168.825 16.1199 168.78 16.3971 168.689 16.6476C168.598 16.8981 168.476 17.1139 168.321 17.2951C168.172 17.4763 167.999 17.6176 167.802 17.7188C167.61 17.8147 167.41 17.8654 167.202 17.8707ZM166.458 16.056C166.458 15.8641 166.411 15.7122 166.315 15.6003C166.224 15.483 166.091 15.4244 165.915 15.4244C165.792 15.4244 165.68 15.4537 165.579 15.5124C165.483 15.5657 165.401 15.6376 165.331 15.7282C165.262 15.8188 165.206 15.9254 165.163 16.048C165.126 16.1706 165.107 16.2985 165.107 16.4317C165.107 16.6449 165.15 16.8208 165.235 16.9593C165.326 17.0979 165.472 17.1672 165.675 17.1672C165.899 17.1672 166.083 17.0633 166.227 16.8554C166.371 16.6422 166.448 16.3758 166.458 16.056ZM171.792 13.3139C172.069 13.3139 172.314 13.3539 172.527 13.4338C172.741 13.5084 172.919 13.615 173.063 13.7536C173.212 13.8868 173.324 14.0467 173.399 14.2332C173.479 14.4198 173.519 14.6223 173.519 14.8408C173.519 15.134 173.441 15.3898 173.287 15.6083C173.132 15.8268 172.935 15.976 172.695 16.056C172.834 16.088 172.962 16.1439 173.079 16.2239C173.202 16.3038 173.308 16.4024 173.399 16.5197C173.489 16.6316 173.561 16.7621 173.615 16.9114C173.668 17.0606 173.695 17.2232 173.695 17.399C173.695 17.6282 173.652 17.8414 173.567 18.0386C173.487 18.2305 173.37 18.3957 173.215 18.5342C173.066 18.6728 172.882 18.7821 172.663 18.862C172.45 18.942 172.21 18.9819 171.944 18.9819H169.753V13.3139H171.792ZM171.624 15.6563C171.88 15.6563 172.077 15.5923 172.216 15.4644C172.36 15.3365 172.431 15.1633 172.431 14.9448C172.431 14.7262 172.362 14.5557 172.224 14.4331C172.09 14.3052 171.888 14.2412 171.616 14.2412H170.841V15.6563H171.624ZM171.736 18.0626C172.008 18.0626 172.218 17.9986 172.368 17.8707C172.517 17.7375 172.591 17.5563 172.591 17.3271C172.591 17.1032 172.519 16.922 172.376 16.7835C172.237 16.6396 172.029 16.5676 171.752 16.5676H170.841V18.0626H171.736ZM176.936 16.1039C176.829 16.0826 176.722 16.072 176.616 16.072C176.477 16.072 176.347 16.0906 176.224 16.1279C176.101 16.1652 175.995 16.2265 175.904 16.3118C175.814 16.3971 175.739 16.5117 175.68 16.6556C175.627 16.7941 175.6 16.97 175.6 17.1832V18.9819H174.537V15.0487H175.568V15.6323C175.627 15.5044 175.702 15.4004 175.792 15.3205C175.888 15.2352 175.987 15.1713 176.088 15.1286C176.195 15.086 176.299 15.0567 176.4 15.0407C176.506 15.0247 176.602 15.0167 176.688 15.0167C176.73 15.0167 176.77 15.0194 176.808 15.0247C176.85 15.0247 176.893 15.0274 176.936 15.0327V16.1039ZM179.411 18.1345C179.539 18.1345 179.664 18.1105 179.787 18.0626C179.909 18.0146 180.016 17.9453 180.107 17.8547C180.197 17.7588 180.269 17.6415 180.323 17.503C180.381 17.3644 180.41 17.2018 180.41 17.0153C180.41 16.8288 180.381 16.6662 180.323 16.5276C180.269 16.3891 180.197 16.2745 180.107 16.1839C180.016 16.088 179.909 16.016 179.787 15.968C179.664 15.9201 179.539 15.8961 179.411 15.8961C179.283 15.8961 179.158 15.9201 179.035 15.968C178.913 16.016 178.806 16.088 178.716 16.1839C178.625 16.2745 178.55 16.3891 178.492 16.5276C178.439 16.6662 178.412 16.8288 178.412 17.0153C178.412 17.2018 178.439 17.3644 178.492 17.503C178.55 17.6415 178.625 17.7588 178.716 17.8547C178.806 17.9453 178.913 18.0146 179.035 18.0626C179.158 18.1105 179.283 18.1345 179.411 18.1345ZM179.411 14.9288C179.704 14.9288 179.976 14.9821 180.227 15.0886C180.482 15.1899 180.701 15.3338 180.882 15.5203C181.069 15.7016 181.213 15.9201 181.314 16.1759C181.42 16.4317 181.474 16.7115 181.474 17.0153C181.474 17.3191 181.42 17.5989 181.314 17.8547C181.213 18.1052 181.069 18.3237 180.882 18.5103C180.701 18.6968 180.482 18.8434 180.227 18.95C179.976 19.0512 179.704 19.1018 179.411 19.1018C179.118 19.1018 178.844 19.0512 178.588 18.95C178.337 18.8434 178.119 18.6968 177.932 18.5103C177.751 18.3237 177.607 18.1052 177.501 17.8547C177.399 17.5989 177.349 17.3191 177.349 17.0153C177.349 16.7115 177.399 16.4317 177.501 16.1759C177.607 15.9201 177.751 15.7016 177.932 15.5203C178.119 15.3338 178.337 15.1899 178.588 15.0886C178.844 14.9821 179.118 14.9288 179.411 14.9288ZM185.561 15.0487L186.409 17.5829L187.136 15.0487H188.191L186.96 18.9819H185.897L184.978 16.2958L184.074 18.9819H182.995L181.74 15.0487H182.859L183.587 17.5749L184.442 15.0487H185.561ZM189.919 18.9819H188.855V15.0487H189.887V15.5363C190.009 15.3338 190.174 15.1846 190.382 15.0886C190.595 14.9927 190.809 14.9448 191.022 14.9448C191.267 14.9448 191.478 14.9874 191.653 15.0727C191.835 15.1526 191.984 15.2619 192.101 15.4004C192.218 15.539 192.304 15.7042 192.357 15.8961C192.416 16.088 192.445 16.2905 192.445 16.5037V18.9819H191.382V16.6875C191.382 16.4637 191.323 16.2772 191.206 16.1279C191.094 15.9787 190.91 15.9041 190.654 15.9041C190.42 15.9041 190.238 15.984 190.11 16.1439C189.983 16.2985 189.919 16.4903 189.919 16.7195V18.9819Z" fill="white"/>
<path d="M116.242 29.3024C116.242 28.9345 116.54 28.6362 116.908 28.6362H128.9C129.268 28.6362 129.566 28.9345 129.566 29.3024V36.697H116.242V29.3024Z" fill="white"/>
<path opacity="0.4" d="M130.232 29.3024C130.232 28.9345 130.531 28.6362 130.899 28.6362H142.89C143.258 28.6362 143.556 28.9345 143.556 29.3024V36.2976H130.232V29.3024Z" fill="white"/>
<path opacity="0.4" d="M144.223 29.3024C144.223 28.9345 144.521 28.6362 144.889 28.6362H156.88C157.248 28.6362 157.547 28.9345 157.547 29.3024V36.2976H144.223V29.3024Z" fill="white"/>
<path opacity="0.4" d="M158.213 29.3024C158.213 28.9345 158.511 28.6362 158.879 28.6362H170.871C171.239 28.6362 171.537 28.9345 171.537 29.3024V36.2976H158.213V29.3024Z" fill="white"/>
<path opacity="0.4" d="M172.203 29.3024C172.203 28.9345 172.501 28.6362 172.869 28.6362H184.861C185.229 28.6362 185.527 28.9345 185.527 29.3024V36.2976H172.203V29.3024Z" fill="white"/>
<path d="M116.242 36.6973H216.172V54.0185C216.172 54.3864 215.874 54.6847 215.506 54.6847H116.908C116.54 54.6847 116.242 54.3864 116.242 54.0185V36.6973Z" fill="white"/>
<rect x="121.572" y="42.0269" width="89.271" height="3.99721" rx="0.666202" fill="#EAEAEA"/>
<rect x="121.572" y="47.3564" width="43.3031" height="1.99861" rx="0.666202" fill="#EAEAEA"/>
<path d="M116.242 58.0153C116.242 57.6474 116.54 57.3491 116.908 57.3491H186.193C186.561 57.3491 186.86 57.6474 186.86 58.0153V82.6648C186.86 83.0327 186.561 83.331 186.193 83.331H116.908C116.54 83.331 116.242 83.0327 116.242 82.6648V58.0153Z" fill="white"/>
<rect x="121.572" y="62.6787" width="13.324" height="13.324" rx="0.666202" fill="#EAEAEA"/>
<rect x="137.561" y="62.6787" width="28.1038" height="1.99861" rx="0.666202" fill="#EAEAEA"/>
<rect x="137.561" y="66.0098" width="43.9693" height="3.99721" rx="0.666202" fill="#008672"/>
<rect x="137.561" y="71.3394" width="43.9693" height="2.66481" rx="0.666202" fill="#7FD9CB" fill-opacity="0.4"/>
<rect x="137.561" y="75.3364" width="38.3066" height="2.66481" rx="0.666202" fill="#7FD9CB" fill-opacity="0.4"/>
<path d="M116.242 86.6618C116.242 86.2939 116.54 85.9956 116.908 85.9956H186.193C186.561 85.9956 186.86 86.2939 186.86 86.6618V103.732C186.86 104.1 186.561 104.398 186.193 104.398H116.908C116.54 104.398 116.242 104.1 116.242 103.732V86.6618Z" fill="white"/>
<rect x="121.572" y="91.3252" width="13.324" height="13.324" rx="0.666202" fill="#EAEAEA"/>
<rect x="137.561" y="91.3252" width="28.1038" height="1.99861" rx="0.666202" fill="#EAEAEA"/>
<rect x="137.561" y="94.6562" width="43.9693" height="3.99721" rx="0.666202" fill="#008672"/>
<rect x="137.561" y="99.9858" width="29.1417" height="2.66481" rx="0.666202" fill="#7FD9CB" fill-opacity="0.4"/>
<rect x="189.524" y="57.3491" width="26.6481" height="46.1806" rx="0.666202" fill="white"/>
<path d="M82.9902 103.993H248.962V112.153C248.962 121.358 241.501 128.82 232.296 128.82H99.6569C90.4522 128.82 82.9902 121.358 82.9902 112.153V103.993Z" fill="#EAEAEA"/>
<path d="M232.238 16.5H242.478C245.759 16.5 248.416 19.1573 248.416 22.4381V113.882C248.416 122.079 241.769 128.727 233.571 128.727H98.3814C90.1838 128.727 83.5361 122.079 83.5361 113.882V22.4381C83.5361 19.1573 86.1934 16.5 89.4742 16.5H99.7115" stroke="#EAEAEA" stroke-width="1.99167" stroke-linecap="round" stroke-linejoin="round"/>
<path d="M140.3 150C140.3 143.673 146.398 138.542 153.919 138.542H178.036C185.557 138.542 191.656 143.673 191.656 150H140.297H140.3Z" fill="#EAEAEA"/>
<path d="M156.254 128.724V142.281H175.699V128.724H156.254Z" fill="#EAEAEA"/>
<rect opacity="0.4" x="266.556" y="51.873" width="63.4014" height="49.2407" fill="#EAEAEA"/>
<circle cx="298.256" cy="76.1809" r="17.759" fill="#EAEAEA"/>
<path d="M265.786 51.1777H330.952" stroke="#EAEAEA" stroke-width="1.99167" stroke-linecap="round" stroke-linejoin="round"/>
<path d="M316.164 32.5967V40.5095" stroke="#EAEAEA" stroke-width="1.99167" stroke-linecap="round" stroke-linejoin="round"/>
<path d="M280.57 32.5967V40.5095" stroke="#EAEAEA" stroke-width="1.99167" stroke-linecap="round" stroke-linejoin="round"/>
<path d="M282.762 46.0283C283.972 44.8175 283.972 42.8544 282.762 41.6436C281.551 40.4328 279.588 40.4328 278.377 41.6436C277.166 42.8544 277.166 44.8175 278.377 46.0283C279.588 47.2391 281.551 47.2391 282.762 46.0283Z" stroke="#EAEAEA" stroke-width="1.99167" stroke-linecap="round" stroke-linejoin="round"/>
<path d="M317.351 46.7001C318.933 46.0448 319.684 44.2312 319.029 42.6492C318.373 41.0672 316.56 40.3159 314.978 40.9712C313.396 41.6265 312.644 43.4402 313.3 45.0222C313.955 46.6042 315.769 47.3554 317.351 46.7001Z" stroke="#EAEAEA" stroke-width="1.99167" stroke-linecap="round" stroke-linejoin="round"/>
<path d="M285.018 37.3037H311.716" stroke="#EAEAEA" stroke-width="1.99167" stroke-linecap="round" stroke-linejoin="round"/>
<path d="M320.611 37.3037H327.69C329.49 37.3037 330.948 38.7624 330.948 40.5618V99.2066C330.948 101.006 329.49 102.465 327.69 102.465H269.044C267.245 102.465 265.786 101.006 265.786 99.2066V40.5618C265.786 38.7624 267.245 37.3037 269.044 37.3037H276.123" stroke="#EAEAEA" stroke-width="1.99167" stroke-linecap="round" stroke-linejoin="round"/>
<rect opacity="0.4" x="1.83008" y="52.4077" width="63.7333" height="49.4985" fill="#EAEAEA"/>
<circle cx="34.3606" cy="76.1809" r="17.759" fill="#EAEAEA"/>
<path d="M1.55859 51.1777H66.725" stroke="#EAEAEA" stroke-width="1.99167" stroke-linecap="round" stroke-linejoin="round"/>
<path d="M51.9355 32.5967V40.5095" stroke="#EAEAEA" stroke-width="1.99167" stroke-linecap="round" stroke-linejoin="round"/>
<path d="M16.3438 32.5967V40.5095" stroke="#EAEAEA" stroke-width="1.99167" stroke-linecap="round" stroke-linejoin="round"/>
<path d="M18.5341 46.0283C19.7449 44.8175 19.7449 42.8544 18.5341 41.6436C17.3233 40.4328 15.3602 40.4328 14.1494 41.6436C12.9386 42.8544 12.9386 44.8175 14.1494 46.0283C15.3602 47.2391 17.3233 47.2391 18.5341 46.0283Z" stroke="#EAEAEA" stroke-width="1.99167" stroke-linecap="round" stroke-linejoin="round"/>
<path d="M53.1222 46.7001C54.7042 46.0448 55.4555 44.2312 54.8002 42.6492C54.1449 41.0672 52.3312 40.3159 50.7492 40.9712C49.1672 41.6265 48.416 43.4402 49.0713 45.0222C49.7265 46.6042 51.5402 47.3554 53.1222 46.7001Z" stroke="#EAEAEA" stroke-width="1.99167" stroke-linecap="round" stroke-linejoin="round"/>
<path d="M20.7891 37.3037H47.4878" stroke="#EAEAEA" stroke-width="1.99167" stroke-linecap="round" stroke-linejoin="round"/>
<path d="M56.3838 37.3037H63.4629C65.2623 37.3037 66.7209 38.7624 66.7209 40.5618V99.2066C66.7209 101.006 65.2623 102.465 63.4629 102.465H4.81664C3.01724 102.465 1.55859 101.006 1.55859 99.2066V40.5618C1.55859 38.7624 3.01724 37.3037 4.81664 37.3037H11.8957" stroke="#EAEAEA" stroke-width="1.99167" stroke-linecap="round" stroke-linejoin="round"/>
<path d="M28.9408 75.6504C28.9408 78.5836 31.3187 80.9615 34.252 80.9615C37.1852 80.9615 39.5631 78.5836 39.5631 75.6504C39.5631 72.7171 37.1852 70.3393 34.252 70.3393C31.3187 70.3393 28.9408 72.7171 28.9408 75.6504ZM111.078 76.3546C111.466 75.9657 111.466 75.3351 111.078 74.9462L104.74 68.6088C104.351 68.2199 103.721 68.2199 103.332 68.6088C102.943 68.9977 102.943 69.6282 103.332 70.0171L108.965 75.6504L103.332 81.2837C102.943 81.6726 102.943 82.3031 103.332 82.692C103.721 83.0809 104.351 83.0809 104.74 82.692L111.078 76.3546ZM34.252 76.6462L110.373 76.6462L110.373 74.6546L34.252 74.6546L34.252 76.6462Z" fill="url(#paint0_linear_212_1246)"/>
<path d="M303.565 75.6504C303.565 72.7171 301.187 70.3393 298.254 70.3393C295.321 70.3393 292.943 72.7171 292.943 75.6504C292.943 78.5836 295.321 80.9615 298.254 80.9615C301.187 80.9615 303.565 78.5836 303.565 75.6504ZM221.428 74.9462C221.039 75.3351 221.039 75.9656 221.428 76.3545L227.766 82.692C228.155 83.0809 228.785 83.0809 229.174 82.692C229.563 82.3031 229.563 81.6726 229.174 81.2837L223.541 75.6504L229.174 70.0171C229.563 69.6282 229.563 68.9977 229.174 68.6088C228.785 68.2199 228.155 68.2199 227.766 68.6088L221.428 74.9462ZM298.254 74.6546L222.132 74.6546L222.132 76.6462L298.254 76.6462L298.254 74.6546Z" fill="url(#paint1_linear_212_1246)"/>
<defs>
<linearGradient id="paint0_linear_212_1246" x1="34.252" y1="76.1504" x2="110.373" y2="76.1504" gradientUnits="userSpaceOnUse">
<stop stop-color="#008672"/>
<stop offset="0.555" stop-color="#7FD9CB"/>
</linearGradient>
<linearGradient id="paint1_linear_212_1246" x1="298.254" y1="75.1504" x2="222.132" y2="75.1504" gradientUnits="userSpaceOnUse">
<stop stop-color="#008672"/>
<stop offset="0.555" stop-color="#7FD9CB"/>
</linearGradient>
</defs>
</svg>
