<svg width="63" height="63" viewBox="0 0 63 63" fill="none" xmlns="http://www.w3.org/2000/svg">
<path d="M55.6956 11.0281H59.4165C60.6086 11.0281 61.5741 11.9936 61.5741 13.1857V46.4119C61.5741 49.3904 59.1592 51.8054 56.1807 51.8054H7.05754C4.079 51.8054 1.66406 49.3904 1.66406 46.4119V13.1857C1.66406 11.9936 2.62958 11.0281 3.82168 11.0281H7.54144M59.4382 43.0986H61.573M1.66406 43.0986H37.6991M55.2528 30.3339V6.78914M7.98547 6.78914V32.8331C7.98547 36.1737 10.6862 38.8847 14.0268 38.8972L37.7003 38.9883M22.804 16.1393H16.0215M34.9881 16.1393H28.2055M47.172 16.1393H40.3895M22.804 20.4158H16.0215M34.9881 20.4158H28.2055M47.172 20.4158H40.3895M22.804 24.6911H16.0215M34.9881 24.6911H28.2055M47.172 24.6911H40.3895M22.804 28.9676H16.0215M34.9881 28.9676H28.2055M47.172 28.9676H40.3895M11.5982 11.0281H51.6821M39.5435 4.61902H23.7366M51.6822 28.9677V8.33537C51.6822 6.28364 49.8878 4.61902 47.6732 4.61902H43.7804M19.4988 4.61902H15.606C13.3926 4.61902 11.597 6.2825 11.597 8.33537V31.3109C11.597 33.3626 12.5455 35.0272 14.7589 35.0272H38.5177M46.5504 40.0088H51.8835M49.217 37.3422V42.6753M22.2885 61.6792V59.8859C22.2885 58.4194 23.6104 57.2307 25.242 57.2307H37.9953C39.6269 57.2307 40.9488 58.4194 40.9488 59.8859V61.6792H22.2874H22.2885ZM29.9988 57.2307V51.8054H33.2403V57.2307H29.9988ZM39.5436 1.6792H43.7814V7.55885H39.5436V1.6792ZM19.499 1.6792H23.7368V7.55885H19.499V1.6792ZM54.4575 34.7678C57.3517 37.662 57.3517 42.3544 54.4575 45.2486C51.5633 48.1428 46.8709 48.1428 43.9767 45.2486C41.0825 42.3544 41.0825 37.662 43.9767 34.7678C46.8709 31.8736 51.5633 31.8736 54.4575 34.7678Z" stroke="#98A4AE" stroke-width="1.93524" stroke-linecap="round" stroke-linejoin="round"/>
</svg>
