<svg width="62" height="62" viewBox="0 0 62 62" fill="none" xmlns="http://www.w3.org/2000/svg">
<path d="M54.734 6.02067V32.1038C54.734 35.4494 52.0292 38.1644 48.6836 38.177L22.3941 38.2682M1 42.3835H60.9989M7.33084 6.02067V32.1038C7.33084 35.4494 10.0356 38.1644 13.3812 38.177L39.6707 38.2682M55.1127 10.2649H58.8391C60.033 10.2649 61 11.2318 61 12.4257V45.7018C61 48.6848 58.5814 51.1034 55.5984 51.1034H6.40157C3.41856 51.1034 1 48.6848 1 45.7018V12.4257C1 11.2318 1.96697 10.2649 3.16086 10.2649H6.8862M11.3223 12.2217H50.6772M41.7453 1V5.77783M20.2508 1V5.77783M22.9362 3.84277H39.0599M44.4319 3.84277H48.7068C49.7935 3.84277 50.675 4.72422 50.675 5.81092V32.3695C50.675 33.4562 49.7913 34.3342 48.7046 34.3342H13.287C12.2003 34.3342 11.3189 33.4528 11.3189 32.3661L11.3223 5.81092C11.3223 4.72422 12.2037 3.84277 13.2904 3.84277H17.5654M28.2938 22.5151L30.2825 24.5027L33.7695 21.0157M21.6554 60.9931V59.1971C21.6554 57.7284 22.9792 56.538 24.6133 56.538H37.3857C39.0198 56.538 40.3436 57.7284 40.3436 59.1971V60.9931H21.6542H21.6554ZM29.3761 56.5369V51.1034H32.6226V56.5369H29.3761ZM21.5753 6.46424C22.3065 7.19544 22.3065 8.38096 21.5753 9.11216C20.8441 9.84336 19.6586 9.84337 18.9274 9.11216C18.1962 8.38096 18.1962 7.19544 18.9274 6.46424C19.6586 5.73304 20.8441 5.73304 21.5753 6.46424ZM43.4753 7.07131C43.871 8.02668 43.4173 9.12195 42.4619 9.51767C41.5066 9.9134 40.4113 9.45972 40.0156 8.50436C39.6199 7.54899 40.0735 6.45372 41.0289 6.058C41.9843 5.66227 43.0795 6.11595 43.4753 7.07131ZM36.1401 17.6503C38.9616 20.4718 38.9616 25.0464 36.1401 27.8679C33.3186 30.6894 28.7441 30.6894 25.9226 27.8679C23.1011 25.0464 23.1011 20.4718 25.9226 17.6503C28.7441 14.8288 33.3186 14.8288 36.1401 17.6503Z" stroke="#98A4AE" stroke-width="1.5" stroke-linecap="round" stroke-linejoin="round"/>
</svg>
