<svg width="62" height="62" viewBox="0 0 62 62" fill="none" xmlns="http://www.w3.org/2000/svg">
<path d="M50.8852 51.1262H6.26066C3.28212 51.1262 0.867188 48.7113 0.867188 45.7327V12.5066C0.867188 11.3145 1.83271 10.349 3.0248 10.349H6.74456M54.8988 10.349H58.6197C59.8118 10.349 60.7773 11.3145 60.7773 12.5066V46.1142M0.867188 42.4195H39.4788M54.4558 28.9477V6.10995M7.18849 6.10995V32.1539C7.18849 35.4945 9.88921 38.2055 13.2298 38.218L39.4799 38.3091M22.0072 15.46H15.2247M46.3752 15.46H39.5926M22.0072 19.7365H15.2247M46.3752 19.7365H39.5926M22.0072 24.012H15.2247M46.3752 24.012H39.5926M46.3752 28.9477H39.5926M34.2448 15.46H27.4622M34.2448 19.7365H27.4622M34.2448 24.012H27.4622M34.2448 28.9477H27.4622M22.0072 28.2884H15.2247M10.8013 10.349H50.8852M38.7466 3.93981H22.9397M50.8853 28.9477V7.65615C50.8853 5.60442 49.0909 3.93981 46.8763 3.93981H42.9835M18.702 3.93981H14.8092C12.5958 3.93981 10.8002 5.60328 10.8002 7.65615V30.6316C10.8002 32.6834 11.7487 34.348 13.9621 34.348H39.4777M58.9335 48.2011L54.9325 51.3687M57.4124 46.2792L53.4102 49.4456M50.9509 38.76L47.5147 41.3606M47.9738 46.9897H44.5261C43.2987 46.9897 42.3036 45.9945 42.3036 44.7671V34.7863C42.3036 33.5589 43.2987 32.5638 44.5261 32.5638H54.5069C55.7343 32.5638 56.7295 33.5589 56.7295 34.7863V41.4846M21.4915 61V59.2067C21.4915 57.7402 22.8134 56.5516 24.445 56.5516H37.1983C38.8299 56.5516 40.1518 57.7402 40.1518 59.2067V61H21.4904H21.4915ZM29.2019 56.5516V51.1262H32.4434V56.5516H29.2019ZM38.7467 1H42.9845V6.87965H38.7467V1ZM18.702 1H22.9398V6.87965H18.702V1ZM46.8133 41.1101L46.261 36.3018L50.8142 37.9436L61.1321 50.9793L57.1311 54.1457L46.8133 41.1101Z" stroke="#98A4AE" stroke-width="1.5" stroke-linecap="round" stroke-linejoin="round"/>
</svg>
