<svg width="62" height="62" viewBox="0 0 62 62" fill="none" xmlns="http://www.w3.org/2000/svg">
<path d="M55.0037 10.5013H58.7134C59.9019 10.5013 60.8646 11.4639 60.8646 12.6524V45.7786C60.8646 48.7482 58.4569 51.1559 55.4873 51.1559H6.51201C3.54244 51.1559 1.13477 48.7482 1.13477 45.7786V12.6524C1.13477 11.4639 2.09738 10.5013 3.28589 10.5013H6.99446M58.735 42.4753H60.8634M1.13477 42.4753H37.0614M54.5621 29.0441V6.27506M7.43716 6.27506V32.2407C7.43716 35.5712 10.1298 38.2741 13.4603 38.2866L37.0625 38.3774M37.0614 34.049H12.9211C12.0743 34.049 11.3886 33.3634 11.3886 32.5166V2.53246C11.3886 1.68564 12.0743 1 12.9211 1H48.9034C49.7502 1 50.4358 1.68564 50.4358 2.53246V26.4798M17.3915 7.35124H44.4332M17.3915 12.6059H44.4332M17.3915 17.8593H44.4332M17.3915 23.1129H44.4332M17.3915 28.3675H40.3024M47.682 30.4733C50.5687 30.37 53.4168 31.8253 54.9617 34.502C57.1889 38.3592 55.8676 43.2915 52.0103 45.5176C48.1531 47.7447 43.2208 46.4234 40.9947 42.5661C38.8879 38.9177 39.9572 34.3067 43.3434 31.9342M21.6971 61V59.2121C21.6971 57.75 23.015 56.5649 24.6417 56.5649H37.3566C38.9833 56.5649 40.3012 57.75 40.3012 59.2121V61H21.696H21.6971ZM29.3842 56.5649V51.1559H32.616V56.5649H29.3842ZM51.2383 41.0473L52.0193 39.6942L51.5494 39.3025C51.2429 39.0471 51.0669 38.6691 51.0669 38.2707V38.2639C51.0669 38.2639 51.0669 38.2593 51.0669 38.2559C51.0669 37.862 51.2338 37.4874 51.5358 37.2354L52.0182 36.8324L51.2372 35.4793L50.6469 35.6961C50.2769 35.8323 49.8671 35.7892 49.5265 35.5906C49.522 35.5883 49.5174 35.586 49.5129 35.5826C49.1724 35.3874 48.9328 35.0548 48.8659 34.6677L48.758 34.0479H47.196L47.0882 34.6677C47.0212 35.0548 46.7817 35.3874 46.4412 35.5826C46.4366 35.5849 46.4309 35.5883 46.4264 35.5906C46.0859 35.7892 45.6761 35.8323 45.306 35.6961L44.7157 35.4793L43.9347 36.8324L44.4047 37.2241C44.7112 37.4795 44.8871 37.8575 44.8871 38.2559V38.2616C44.8871 38.2616 44.8871 38.2673 44.8871 38.2695C44.8871 38.6634 44.7203 39.038 44.4183 39.29L43.9359 39.693L44.7169 41.045L45.3071 40.8282C45.6772 40.692 46.087 40.7351 46.4275 40.9338C46.4321 40.936 46.4366 40.9383 46.4412 40.9417C46.7817 41.1369 47.0212 41.4696 47.0893 41.8566L47.1972 42.4764H48.7592L48.867 41.8566C48.934 41.4696 49.1735 41.1369 49.514 40.9417C49.5186 40.9394 49.5231 40.9372 49.5277 40.9338C49.8682 40.7351 50.278 40.692 50.6481 40.8282L51.2383 41.045V41.0473ZM45.4115 30.7808H42.6769L44.0448 33.1487L45.4115 30.7808Z" stroke="#98A4AE" stroke-width="1.5" stroke-linecap="round" stroke-linejoin="round"/>
</svg>
