<svg width="62" height="62" viewBox="0 0 62 62" fill="none" xmlns="http://www.w3.org/2000/svg">
<path d="M55.0316 10.3489H58.7524C59.9445 10.3489 60.9101 11.3144 60.9101 12.5065V45.7327C60.9101 48.7112 58.4951 51.1262 55.5166 51.1262H6.39348C3.41494 51.1262 1 48.7112 1 45.7327V12.5065C1 11.3144 1.96552 10.3489 3.15762 10.3489H6.87738M59.2284 42.4194H60.9089M1 42.4194H38.7486M38.9787 38.4298H12.954C11.6595 38.4298 10.6097 37.4108 10.6097 36.1527V3.27717C10.6097 2.01903 11.6595 1 12.954 1H48.9538C50.2484 1 51.2982 2.01903 51.2982 3.27717V28.2771M10.6097 6.66787H51.2982M16.5873 12.4417H45.3206M16.5873 17.3558H45.3206M16.5873 22.2699H45.3206M16.5873 27.184H45.3206M16.5873 32.0981H38.9787M14.6882 3.83393H16.2093M18.7893 3.83393H20.3105M46.6385 38.9399L48.6777 40.9791L52.254 37.4028M54.5875 29.6547V6.10994M7.32023 38.1953V6.10994M21.6244 61V59.2067C21.6244 57.7402 22.9463 56.5515 24.5779 56.5515H37.3312C38.9628 56.5515 40.2847 57.7402 40.2847 59.2067V61H21.6233H21.6244ZM29.3347 56.5515V51.1262H32.5763V56.5515H29.3347ZM54.6869 33.9512C57.5811 36.8454 57.5811 41.5379 54.6869 44.432C51.7927 47.3262 47.1003 47.3262 44.2061 44.432C41.3119 41.5379 41.3119 36.8454 44.2061 33.9512C47.1003 31.057 51.7927 31.057 54.6869 33.9512Z" stroke="#98A4AE" stroke-width="1.81428" stroke-linecap="round" stroke-linejoin="round"/>
</svg>
