<svg width="493" height="221" viewBox="0 0 493 221" fill="none" xmlns="http://www.w3.org/2000/svg">
<rect x="250" width="243" height="204" rx="3.52088" fill="#F0F3F5"/>
<rect x="255.723" y="7.04199" width="231.555" height="66.1585" rx="1.76044" fill="#FFC72C"/>
<path opacity="0.2" d="M325.373 29.3733V38.5508H323.166V29.3733H319.609V27.2933H328.929V29.3733H325.373ZM332.318 36.8677C332.572 36.8677 332.821 36.8201 333.064 36.7248C333.308 36.6295 333.519 36.4919 333.699 36.312C333.879 36.1214 334.022 35.8886 334.128 35.6133C334.244 35.3381 334.303 35.0153 334.303 34.6448C334.303 34.2743 334.244 33.9514 334.128 33.6762C334.022 33.401 333.879 33.1734 333.699 32.9935C333.519 32.8029 333.308 32.66 333.064 32.5648C332.821 32.4695 332.572 32.4219 332.318 32.4219C332.064 32.4219 331.815 32.4695 331.572 32.5648C331.328 32.66 331.116 32.8029 330.936 32.9935C330.757 33.1734 330.608 33.401 330.492 33.6762C330.386 33.9514 330.333 34.2743 330.333 34.6448C330.333 35.0153 330.386 35.3381 330.492 35.6133C330.608 35.8886 330.757 36.1214 330.936 36.312C331.116 36.4919 331.328 36.6295 331.572 36.7248C331.815 36.8201 332.064 36.8677 332.318 36.8677ZM332.318 30.5006C332.9 30.5006 333.44 30.6065 333.937 30.8182C334.446 31.0193 334.88 31.3051 335.239 31.6756C335.61 32.0355 335.896 32.4695 336.097 32.9776C336.309 33.4857 336.414 34.0414 336.414 34.6448C336.414 35.2481 336.309 35.8039 336.097 36.312C335.896 36.8095 335.61 37.2435 335.239 37.614C334.88 37.9845 334.446 38.2756 333.937 38.4873C333.44 38.6884 332.9 38.789 332.318 38.789C331.736 38.789 331.191 38.6884 330.682 38.4873C330.185 38.2756 329.751 37.9845 329.38 37.614C329.021 37.2435 328.735 36.8095 328.523 36.312C328.322 35.8039 328.221 35.2481 328.221 34.6448C328.221 34.0414 328.322 33.4857 328.523 32.9776C328.735 32.4695 329.021 32.0355 329.38 31.6756C329.751 31.3051 330.185 31.0193 330.682 30.8182C331.191 30.6065 331.736 30.5006 332.318 30.5006ZM345.528 37.1376C345.528 37.4023 345.533 37.6669 345.544 37.9315C345.555 38.1856 345.57 38.392 345.592 38.5508H343.575C343.554 38.4661 343.533 38.3391 343.512 38.1697C343.501 38.0003 343.496 37.8257 343.496 37.6457C343.316 37.9527 343.035 38.212 342.654 38.4238C342.284 38.6355 341.834 38.7413 341.305 38.7413C340.744 38.7413 340.23 38.6408 339.764 38.4396C339.299 38.2279 338.896 37.9421 338.558 37.5822C338.23 37.2117 337.97 36.7777 337.78 36.2802C337.589 35.7721 337.494 35.2217 337.494 34.6289C337.494 34.0573 337.584 33.5227 337.764 33.0252C337.954 32.5277 338.214 32.099 338.542 31.7391C338.87 31.3686 339.262 31.0775 339.717 30.8658C340.183 30.6541 340.691 30.5483 341.241 30.5483C341.58 30.5483 341.871 30.58 342.114 30.6435C342.368 30.707 342.585 30.7864 342.765 30.8817C342.945 30.977 343.088 31.0828 343.194 31.1992C343.311 31.3051 343.395 31.411 343.448 31.5168V27.0551H345.528V37.1376ZM339.622 34.6289C339.622 35.3275 339.801 35.8727 340.161 36.2643C340.532 36.656 340.998 36.8518 341.559 36.8518C342.098 36.8518 342.554 36.656 342.924 36.2643C343.295 35.8727 343.48 35.3222 343.48 34.613C343.48 33.9144 343.295 33.3798 342.924 33.0093C342.554 32.6283 342.098 32.4377 341.559 32.4377C341.019 32.4377 340.558 32.6283 340.177 33.0093C339.807 33.3904 339.622 33.9303 339.622 34.6289ZM347.296 36.4231C347.296 36.0738 347.354 35.7668 347.471 35.5022C347.598 35.227 347.767 34.9888 347.979 34.7877C348.191 34.5866 348.434 34.4278 348.709 34.3113C348.995 34.1949 349.302 34.1102 349.63 34.0573L351.552 33.7715C351.774 33.7397 351.927 33.6762 352.012 33.581C352.097 33.4751 352.139 33.3534 352.139 33.2158C352.139 32.9405 352.028 32.7024 351.806 32.5012C351.594 32.3001 351.266 32.1996 350.821 32.1996C350.355 32.1996 349.995 32.3266 349.741 32.5806C349.498 32.8347 349.36 33.1311 349.329 33.4698L347.455 33.0729C347.487 32.7659 347.582 32.4589 347.741 32.1519C347.9 31.845 348.117 31.5697 348.392 31.3263C348.667 31.0828 349.006 30.887 349.408 30.7388C349.81 30.58 350.276 30.5006 350.805 30.5006C351.419 30.5006 351.943 30.5853 352.377 30.7547C352.811 30.9134 353.16 31.1304 353.425 31.4057C353.7 31.6703 353.896 31.9826 354.013 32.3425C354.14 32.7024 354.203 33.0782 354.203 33.4698V37.3123C354.203 37.524 354.214 37.7516 354.235 37.995C354.256 38.2279 354.277 38.4132 354.298 38.5508H352.361C352.34 38.4449 352.319 38.302 352.298 38.1221C352.287 37.9315 352.282 37.7622 352.282 37.614C352.081 37.921 351.79 38.1909 351.409 38.4238C351.038 38.6566 350.562 38.7731 349.98 38.7731C349.567 38.7731 349.191 38.7043 348.852 38.5667C348.524 38.4396 348.244 38.2703 348.011 38.0586C347.778 37.8363 347.598 37.5875 347.471 37.3123C347.354 37.0265 347.296 36.7301 347.296 36.4231ZM350.424 37.2011C350.646 37.2011 350.858 37.1747 351.059 37.1218C351.271 37.0582 351.456 36.9577 351.615 36.8201C351.774 36.6719 351.901 36.4866 351.996 36.2643C352.091 36.0315 352.139 35.7404 352.139 35.3911V35.0417L350.377 35.3117C350.101 35.354 349.868 35.4546 349.678 35.6133C349.498 35.7615 349.408 35.9891 349.408 36.2961C349.408 36.529 349.493 36.7407 349.662 36.9312C349.831 37.1112 350.085 37.2011 350.424 37.2011ZM356.591 41.6311L358.433 37.5663L355.114 30.7388H357.48L359.56 35.3117L361.481 30.7388H363.736L358.829 41.6311H356.591ZM373.302 36.3437C372.857 36.3437 372.508 36.2485 372.254 36.0579C372 35.8674 371.836 35.6398 371.762 35.3752C371.561 35.7033 371.291 35.9521 370.952 36.1214C370.624 36.2908 370.28 36.3755 369.92 36.3755C369.571 36.3755 369.248 36.312 368.951 36.185C368.666 36.0473 368.412 35.8568 368.189 35.6133C367.978 35.3699 367.808 35.0788 367.681 34.7401C367.565 34.4013 367.506 34.0308 367.506 33.6286C367.506 33.1099 367.591 32.6336 367.761 32.1996C367.93 31.755 368.157 31.3739 368.443 31.0563C368.729 30.7388 369.057 30.4953 369.428 30.326C369.809 30.146 370.211 30.056 370.634 30.056C370.941 30.056 371.243 30.1301 371.539 30.2783C371.846 30.4265 372.058 30.6541 372.175 30.9611L372.302 30.2624H373.81L372.984 34.1526C372.963 34.2584 372.953 34.3537 372.953 34.4384C372.953 34.576 372.995 34.6977 373.08 34.8036C373.164 34.9094 373.291 34.9623 373.461 34.9623C373.651 34.9623 373.842 34.8935 374.032 34.7559C374.223 34.6183 374.387 34.4331 374.525 34.2002C374.673 33.9567 374.789 33.6709 374.874 33.3428C374.969 33.0146 375.017 32.66 375.017 32.279C375.017 31.7179 374.911 31.2045 374.699 30.7388C374.498 30.273 374.212 29.8761 373.842 29.5479C373.482 29.2092 373.043 28.9499 372.524 28.7699C372.005 28.5794 371.439 28.4841 370.825 28.4841C370.158 28.4841 369.539 28.6005 368.967 28.8334C368.406 29.0557 367.919 29.3786 367.506 29.802C367.094 30.2254 366.765 30.7335 366.522 31.3263C366.289 31.9085 366.173 32.5542 366.173 33.2634C366.173 33.9197 366.279 34.5336 366.49 35.1052C366.713 35.6663 367.025 36.1532 367.427 36.566C367.84 36.9789 368.343 37.307 368.935 37.5505C369.528 37.7833 370.2 37.8998 370.952 37.8998C371.46 37.8998 371.963 37.831 372.46 37.6934C372.958 37.5452 373.429 37.3017 373.874 36.963L374.636 38.0427C374.424 38.2332 374.17 38.4079 373.874 38.5667C373.577 38.7254 373.265 38.8578 372.937 38.9636C372.609 39.08 372.275 39.1647 371.936 39.2177C371.598 39.2812 371.27 39.3129 370.952 39.3129C370.02 39.3129 369.163 39.1647 368.38 38.8683C367.607 38.5825 366.935 38.1803 366.363 37.6616C365.802 37.1323 365.363 36.4972 365.045 35.7562C364.728 35.0153 364.569 34.1949 364.569 33.2952C364.569 32.3742 364.733 31.5327 365.061 30.7705C365.389 29.9978 365.834 29.3362 366.395 28.7858C366.967 28.2353 367.628 27.8066 368.38 27.4997C369.142 27.1927 369.952 27.0392 370.809 27.0392C371.624 27.0392 372.381 27.1715 373.08 27.4362C373.778 27.7008 374.382 28.066 374.89 28.5317C375.398 28.9975 375.795 29.5532 376.081 30.1989C376.377 30.8341 376.525 31.5221 376.525 32.2631C376.525 32.8664 376.435 33.4169 376.255 33.9144C376.075 34.4119 375.832 34.8406 375.525 35.2005C375.228 35.5604 374.884 35.8409 374.493 36.0421C374.112 36.2326 373.715 36.3331 373.302 36.3437ZM371.825 32.7394C371.825 32.3583 371.73 32.0567 371.539 31.8344C371.36 31.6015 371.095 31.4851 370.746 31.4851C370.502 31.4851 370.28 31.5433 370.079 31.6597C369.888 31.7656 369.724 31.9085 369.586 32.0884C369.449 32.2684 369.338 32.4801 369.253 32.7235C369.179 32.967 369.142 33.2211 369.142 33.4857C369.142 33.9091 369.227 34.2584 369.396 34.5336C369.576 34.8089 369.867 34.9465 370.269 34.9465C370.714 34.9465 371.079 34.7401 371.365 34.3272C371.651 33.9038 371.804 33.3745 371.825 32.7394ZM382.418 27.2933C382.969 27.2933 383.456 27.3726 383.879 27.5314C384.302 27.6796 384.657 27.8913 384.943 28.1665C385.239 28.4312 385.462 28.7487 385.61 29.1192C385.769 29.4897 385.848 29.892 385.848 30.326C385.848 30.9082 385.694 31.4162 385.387 31.8502C385.081 32.2842 384.689 32.5806 384.213 32.7394C384.488 32.8029 384.742 32.9141 384.975 33.0729C385.218 33.2316 385.43 33.4275 385.61 33.6603C385.79 33.8826 385.933 34.142 386.038 34.4384C386.144 34.7348 386.197 35.0576 386.197 35.4069C386.197 35.8621 386.113 36.2855 385.943 36.6772C385.784 37.0582 385.552 37.3864 385.245 37.6616C384.948 37.9368 384.583 38.1538 384.149 38.3126C383.726 38.4714 383.249 38.5508 382.72 38.5508H378.369V27.2933H382.418ZM382.085 31.9455C382.593 31.9455 382.985 31.8185 383.26 31.5644C383.546 31.3104 383.689 30.9664 383.689 30.5324C383.689 30.0984 383.551 29.7596 383.276 29.5162C383.011 29.2621 382.609 29.1351 382.069 29.1351H380.529V31.9455H382.085ZM382.307 36.7248C382.847 36.7248 383.265 36.5978 383.562 36.3437C383.858 36.0791 384.006 35.7192 384.006 35.264C384.006 34.8194 383.863 34.4595 383.577 34.1843C383.302 33.8985 382.889 33.7556 382.339 33.7556H380.529V36.7248H382.307ZM392.634 32.8347C392.422 32.7923 392.211 32.7712 391.999 32.7712C391.724 32.7712 391.465 32.8082 391.221 32.8823C390.978 32.9564 390.766 33.0782 390.586 33.2475C390.406 33.4169 390.258 33.6445 390.141 33.9303C390.035 34.2055 389.983 34.5548 389.983 34.9782V38.5508H387.871V30.7388H389.919V31.8979C390.035 31.6438 390.184 31.4374 390.364 31.2786C390.554 31.1093 390.75 30.9822 390.951 30.8976C391.163 30.8129 391.369 30.7547 391.57 30.7229C391.782 30.6912 391.973 30.6753 392.142 30.6753C392.227 30.6753 392.306 30.6806 392.38 30.6912C392.465 30.6912 392.55 30.6964 392.634 30.707V32.8347ZM397.551 36.8677C397.805 36.8677 398.054 36.8201 398.297 36.7248C398.541 36.6295 398.753 36.4919 398.933 36.312C399.113 36.1214 399.255 35.8886 399.361 35.6133C399.478 35.3381 399.536 35.0153 399.536 34.6448C399.536 34.2743 399.478 33.9514 399.361 33.6762C399.255 33.401 399.113 33.1734 398.933 32.9935C398.753 32.8029 398.541 32.66 398.297 32.5648C398.054 32.4695 397.805 32.4219 397.551 32.4219C397.297 32.4219 397.048 32.4695 396.805 32.5648C396.561 32.66 396.35 32.8029 396.17 32.9935C395.99 33.1734 395.842 33.401 395.725 33.6762C395.619 33.9514 395.566 34.2743 395.566 34.6448C395.566 35.0153 395.619 35.3381 395.725 35.6133C395.842 35.8886 395.99 36.1214 396.17 36.312C396.35 36.4919 396.561 36.6295 396.805 36.7248C397.048 36.8201 397.297 36.8677 397.551 36.8677ZM397.551 30.5006C398.133 30.5006 398.673 30.6065 399.171 30.8182C399.679 31.0193 400.113 31.3051 400.473 31.6756C400.843 32.0355 401.129 32.4695 401.33 32.9776C401.542 33.4857 401.648 34.0414 401.648 34.6448C401.648 35.2481 401.542 35.8039 401.33 36.312C401.129 36.8095 400.843 37.2435 400.473 37.614C400.113 37.9845 399.679 38.2756 399.171 38.4873C398.673 38.6884 398.133 38.789 397.551 38.789C396.969 38.789 396.424 38.6884 395.916 38.4873C395.418 38.2756 394.984 37.9845 394.614 37.614C394.254 37.2435 393.968 36.8095 393.756 36.312C393.555 35.8039 393.455 35.2481 393.455 34.6448C393.455 34.0414 393.555 33.4857 393.756 32.9776C393.968 32.4695 394.254 32.0355 394.614 31.6756C394.984 31.3051 395.418 31.0193 395.916 30.8182C396.424 30.6065 396.969 30.5006 397.551 30.5006ZM409.766 30.7388L411.449 35.7721L412.894 30.7388H414.99L412.545 38.5508H410.433L408.607 33.2158L406.813 38.5508H404.669L402.176 30.7388H404.399L405.844 35.7562L407.543 30.7388H409.766ZM418.42 38.5508H416.309V30.7388H418.357V31.7073C418.6 31.3051 418.928 31.0087 419.341 30.8182C419.765 30.6276 420.188 30.5324 420.612 30.5324C421.098 30.5324 421.517 30.6171 421.866 30.7864C422.226 30.9452 422.522 31.1622 422.755 31.4374C422.988 31.7126 423.157 32.0408 423.263 32.4219C423.38 32.8029 423.438 33.2052 423.438 33.6286V38.5508H421.326V33.9938C421.326 33.5492 421.21 33.1787 420.977 32.8823C420.754 32.5859 420.389 32.4377 419.881 32.4377C419.415 32.4377 419.056 32.5965 418.801 32.9141C418.547 33.2211 418.42 33.6021 418.42 34.0573V38.5508Z" fill="black"/>
<path d="M272.263 59.9687C272.263 59.2379 272.855 58.6455 273.586 58.6455H371.5V73.862H272.263V59.9687Z" fill="white"/>
<path opacity="0.4" d="M371.5 58.6455H469.415C470.145 58.6455 470.738 59.2379 470.738 59.9687V73.862H371.5V58.6455Z" fill="white"/>
<path d="M272.263 73.8618H470.738V108.264C470.738 108.995 470.146 109.587 469.415 109.587H273.586C272.855 109.587 272.263 108.995 272.263 108.264V73.8618Z" fill="white"/>
<rect x="282.848" y="84.4473" width="121.07" height="7.93902" rx="1.32317" fill="#687078"/>
<rect x="282.848" y="95.0327" width="86.006" height="3.96951" rx="1.32317" fill="#98A4AE"/>
<path d="M272.263 116.204C272.263 115.473 272.855 114.88 273.586 114.88H469.415C470.146 114.88 470.738 115.473 470.738 116.204V177.069C470.738 177.8 470.146 178.393 469.415 178.393H273.586C272.855 178.393 272.263 177.8 272.263 177.069V116.204Z" fill="white"/>
<rect x="282.848" y="125.466" width="23.1555" height="9.26219" rx="1.32317" fill="#FFC72C"/>
<rect x="282.848" y="137.374" width="132.317" height="7.93902" rx="1.32317" fill="#687078"/>
<rect x="282.848" y="147.959" width="142.241" height="3.96951" rx="1.32317" fill="#F0F3F5"/>
<rect x="282.848" y="154.576" width="177.305" height="5.29268" rx="1.32317" fill="#98A4AE"/>
<rect x="282.848" y="162.515" width="76.0823" height="5.29268" rx="1.32317" fill="#98A4AE"/>
<path d="M272.263 185.008C272.263 184.277 272.855 183.685 273.586 183.685H469.415C470.146 183.685 470.738 184.277 470.738 185.008V219.411C470.738 220.141 470.146 220.734 469.415 220.734H273.586C272.855 220.734 272.263 220.141 272.263 219.411V185.008Z" fill="white"/>
<rect x="282.848" y="194.271" width="132.317" height="7.93902" rx="1.32317" fill="#687078"/>
<rect x="282.848" y="204.856" width="76.0823" height="5.29268" rx="1.32317" fill="#98A4AE"/>
<rect width="243" height="204" rx="3.52088" fill="#F0F3F5"/>
<rect x="5.72266" y="7.04199" width="231.555" height="66.1585" rx="1.76044" fill="#008672"/>
<path opacity="0.3" d="M67.8004 38.5508V27.2933H74.8502V29.3574H69.9915V31.9296H74.3898V33.8826H69.9915V36.4866H74.8502V38.5508H67.8004ZM81.0317 38.5508H78.92L75.7285 30.7388H78.0467L79.9838 35.9785L81.8415 30.7388H84.0644L81.0317 38.5508ZM90.1501 33.7556C90.1395 33.5651 90.0971 33.3798 90.023 33.1999C89.9595 33.0093 89.8537 32.8453 89.7055 32.7077C89.5679 32.5595 89.3879 32.443 89.1656 32.3583C88.9539 32.2631 88.6999 32.2154 88.4035 32.2154C88.1283 32.2154 87.8848 32.2631 87.6731 32.3583C87.4614 32.4536 87.2814 32.5753 87.1332 32.7235C86.985 32.8717 86.8686 33.0358 86.7839 33.2158C86.7098 33.3957 86.6675 33.5757 86.6569 33.7556H90.1501ZM92.1189 36.312C92.0237 36.6507 91.8702 36.9736 91.6585 37.2805C91.4574 37.5769 91.2086 37.8363 90.9122 38.0586C90.6158 38.2809 90.2665 38.4555 89.8643 38.5825C89.4726 38.7201 89.0386 38.789 88.5623 38.789C88.0224 38.789 87.509 38.699 87.0221 38.519C86.5352 38.3285 86.1065 38.0533 85.736 37.6934C85.3655 37.3335 85.0691 36.8942 84.8468 36.3755C84.6351 35.8568 84.5292 35.2693 84.5292 34.613C84.5292 33.9885 84.6351 33.4222 84.8468 32.9141C85.0585 32.406 85.339 31.9773 85.6883 31.628C86.0482 31.2681 86.4611 30.9928 86.9268 30.8023C87.3926 30.6012 87.8742 30.5006 88.3717 30.5006C89.589 30.5006 90.5364 30.8605 91.2139 31.5803C91.8914 32.3001 92.2301 33.2899 92.2301 34.5495C92.2301 34.6977 92.2248 34.8406 92.2142 34.9782C92.2036 35.1052 92.1983 35.1793 92.1983 35.2005H86.6093C86.6199 35.4546 86.6781 35.6927 86.7839 35.915C86.9004 36.1267 87.0433 36.312 87.2126 36.4708C87.3926 36.6295 87.599 36.7566 87.8319 36.8518C88.0648 36.9365 88.3135 36.9789 88.5781 36.9789C89.0757 36.9789 89.462 36.8677 89.7372 36.6454C90.023 36.4231 90.2295 36.1373 90.3565 35.788L92.1189 36.312ZM96.0048 38.5508H93.8931V30.7388H95.9413V31.7073C96.1848 31.3051 96.5129 31.0087 96.9258 30.8182C97.3492 30.6276 97.7726 30.5324 98.196 30.5324C98.6829 30.5324 99.1011 30.6171 99.4504 30.7864C99.8103 30.9452 100.107 31.1622 100.34 31.4374C100.572 31.7126 100.742 32.0408 100.848 32.4219C100.964 32.8029 101.022 33.2052 101.022 33.6286V38.5508H98.9105V33.9938C98.9105 33.5492 98.7941 33.1787 98.5612 32.8823C98.3389 32.5859 97.9737 32.4377 97.4656 32.4377C96.9999 32.4377 96.64 32.5965 96.3859 32.9141C96.1319 33.2211 96.0048 33.6021 96.0048 34.0573V38.5508ZM105.77 30.7388H107.342V32.6124H105.77V35.8833C105.77 36.222 105.844 36.4602 105.992 36.5978C106.151 36.7248 106.384 36.7883 106.691 36.7883C106.818 36.7883 106.945 36.783 107.072 36.7724C107.199 36.7619 107.289 36.746 107.342 36.7248V38.4714C107.246 38.5137 107.098 38.5561 106.897 38.5984C106.706 38.6408 106.458 38.6619 106.151 38.6619C105.389 38.6619 104.785 38.4502 104.341 38.0268C103.896 37.6034 103.674 37.0106 103.674 36.2485V32.6124H102.261V30.7388H102.657C103.07 30.7388 103.372 30.6223 103.563 30.3895C103.764 30.146 103.864 29.8496 103.864 29.5003V28.4047H105.77V30.7388ZM110.449 35.9785C110.47 36.2855 110.597 36.5607 110.83 36.8042C111.063 37.0477 111.412 37.1694 111.878 37.1694C112.227 37.1694 112.487 37.0953 112.656 36.9471C112.826 36.7883 112.91 36.6031 112.91 36.3914C112.91 36.2114 112.847 36.0579 112.72 35.9309C112.593 35.7933 112.376 35.6927 112.069 35.6292L111.037 35.3911C110.274 35.2217 109.719 34.9306 109.369 34.5178C109.02 34.0943 108.845 33.6074 108.845 33.057C108.845 32.7077 108.92 32.3795 109.068 32.0725C109.216 31.755 109.417 31.4851 109.671 31.2628C109.936 31.0299 110.243 30.8446 110.592 30.707C110.952 30.5694 111.344 30.5006 111.767 30.5006C112.317 30.5006 112.783 30.58 113.164 30.7388C113.545 30.887 113.852 31.0775 114.085 31.3104C114.329 31.5433 114.509 31.792 114.625 32.0567C114.742 32.3107 114.81 32.5436 114.831 32.7553L113.069 33.1522C113.048 33.0358 113.011 32.9194 112.958 32.8029C112.916 32.6759 112.841 32.5595 112.736 32.4536C112.63 32.3478 112.497 32.2631 112.339 32.1996C112.19 32.1361 112.005 32.1043 111.783 32.1043C111.508 32.1043 111.27 32.1784 111.068 32.3266C110.878 32.4748 110.783 32.66 110.783 32.8823C110.783 33.0729 110.846 33.2263 110.973 33.3428C111.111 33.4592 111.285 33.5386 111.497 33.581L112.609 33.8191C113.381 33.9779 113.958 34.2743 114.339 34.7083C114.731 35.1423 114.927 35.6451 114.927 36.2167C114.927 36.5343 114.863 36.8465 114.736 37.1535C114.62 37.4605 114.435 37.7357 114.18 37.9792C113.926 38.2226 113.609 38.4185 113.228 38.5667C112.847 38.7149 112.402 38.789 111.894 38.789C111.301 38.789 110.804 38.7043 110.402 38.5349C109.999 38.3655 109.671 38.1591 109.417 37.9157C109.163 37.6722 108.972 37.4129 108.845 37.1376C108.729 36.8518 108.66 36.5978 108.639 36.3755L110.449 35.9785ZM124.85 36.3437C124.405 36.3437 124.056 36.2485 123.802 36.0579C123.548 35.8674 123.383 35.6398 123.309 35.3752C123.108 35.7033 122.838 35.9521 122.5 36.1214C122.171 36.2908 121.827 36.3755 121.468 36.3755C121.118 36.3755 120.795 36.312 120.499 36.185C120.213 36.0473 119.959 35.8568 119.737 35.6133C119.525 35.3699 119.356 35.0788 119.229 34.7401C119.112 34.4013 119.054 34.0308 119.054 33.6286C119.054 33.1099 119.139 32.6336 119.308 32.1996C119.477 31.755 119.705 31.3739 119.991 31.0563C120.277 30.7388 120.605 30.4953 120.975 30.326C121.356 30.146 121.759 30.056 122.182 30.056C122.489 30.056 122.791 30.1301 123.087 30.2783C123.394 30.4265 123.606 30.6541 123.722 30.9611L123.849 30.2624H125.358L124.532 34.1526C124.511 34.2584 124.5 34.3537 124.5 34.4384C124.5 34.576 124.543 34.6977 124.627 34.8036C124.712 34.9094 124.839 34.9623 125.008 34.9623C125.199 34.9623 125.389 34.8935 125.58 34.7559C125.77 34.6183 125.935 34.4331 126.072 34.2002C126.22 33.9567 126.337 33.6709 126.421 33.3428C126.517 33.0146 126.564 32.66 126.564 32.279C126.564 31.7179 126.459 31.2045 126.247 30.7388C126.046 30.273 125.76 29.8761 125.389 29.5479C125.029 29.2092 124.59 28.9499 124.072 28.7699C123.553 28.5794 122.987 28.4841 122.373 28.4841C121.706 28.4841 121.086 28.6005 120.515 28.8334C119.954 29.0557 119.467 29.3786 119.054 29.802C118.641 30.2254 118.313 30.7335 118.07 31.3263C117.837 31.9085 117.72 32.5542 117.72 33.2634C117.72 33.9197 117.826 34.5336 118.038 35.1052C118.26 35.6663 118.572 36.1532 118.975 36.566C119.387 36.9789 119.89 37.307 120.483 37.5505C121.076 37.7833 121.748 37.8998 122.5 37.8998C123.008 37.8998 123.51 37.831 124.008 37.6934C124.506 37.5452 124.977 37.3017 125.421 36.963L126.183 38.0427C125.972 38.2332 125.718 38.4079 125.421 38.5667C125.125 38.7254 124.812 38.8578 124.484 38.9636C124.156 39.08 123.823 39.1647 123.484 39.2177C123.145 39.2812 122.817 39.3129 122.5 39.3129C121.568 39.3129 120.711 39.1647 119.927 38.8683C119.155 38.5825 118.482 38.1803 117.911 37.6616C117.35 37.1323 116.911 36.4972 116.593 35.7562C116.275 35.0153 116.117 34.1949 116.117 33.2952C116.117 32.3742 116.281 31.5327 116.609 30.7705C116.937 29.9978 117.382 29.3362 117.943 28.7858C118.514 28.2353 119.176 27.8066 119.927 27.4997C120.689 27.1927 121.499 27.0392 122.357 27.0392C123.172 27.0392 123.929 27.1715 124.627 27.4362C125.326 27.7008 125.929 28.066 126.437 28.5317C126.945 28.9975 127.342 29.5532 127.628 30.1989C127.925 30.8341 128.073 31.5221 128.073 32.2631C128.073 32.8664 127.983 33.4169 127.803 33.9144C127.623 34.4119 127.379 34.8406 127.072 35.2005C126.776 35.5604 126.432 35.8409 126.04 36.0421C125.659 36.2326 125.262 36.3331 124.85 36.3437ZM123.373 32.7394C123.373 32.3583 123.278 32.0567 123.087 31.8344C122.907 31.6015 122.642 31.4851 122.293 31.4851C122.05 31.4851 121.827 31.5433 121.626 31.6597C121.436 31.7656 121.272 31.9085 121.134 32.0884C120.996 32.2684 120.885 32.4801 120.801 32.7235C120.727 32.967 120.689 33.2211 120.689 33.4857C120.689 33.9091 120.774 34.2584 120.944 34.5336C121.123 34.8089 121.415 34.9465 121.817 34.9465C122.261 34.9465 122.627 34.7401 122.912 34.3272C123.198 33.9038 123.352 33.3745 123.373 32.7394ZM133.966 27.2933C134.516 27.2933 135.003 27.3726 135.427 27.5314C135.85 27.6796 136.205 27.8913 136.49 28.1665C136.787 28.4312 137.009 28.7487 137.157 29.1192C137.316 29.4897 137.396 29.892 137.396 30.326C137.396 30.9082 137.242 31.4162 136.935 31.8502C136.628 32.2842 136.236 32.5806 135.76 32.7394C136.035 32.8029 136.289 32.9141 136.522 33.0729C136.766 33.2316 136.977 33.4275 137.157 33.6603C137.337 33.8826 137.48 34.142 137.586 34.4384C137.692 34.7348 137.745 35.0576 137.745 35.4069C137.745 35.8621 137.66 36.2855 137.491 36.6772C137.332 37.0582 137.099 37.3864 136.792 37.6616C136.496 37.9368 136.131 38.1538 135.697 38.3126C135.273 38.4714 134.797 38.5508 134.268 38.5508H129.917V27.2933H133.966ZM133.632 31.9455C134.141 31.9455 134.532 31.8185 134.807 31.5644C135.093 31.3104 135.236 30.9664 135.236 30.5324C135.236 30.0984 135.099 29.7596 134.823 29.5162C134.559 29.2621 134.156 29.1351 133.617 29.1351H132.076V31.9455H133.632ZM133.855 36.7248C134.395 36.7248 134.813 36.5978 135.109 36.3437C135.405 36.0791 135.554 35.7192 135.554 35.264C135.554 34.8194 135.411 34.4595 135.125 34.1843C134.85 33.8985 134.437 33.7556 133.886 33.7556H132.076V36.7248H133.855ZM144.182 32.8347C143.97 32.7923 143.758 32.7712 143.547 32.7712C143.271 32.7712 143.012 32.8082 142.769 32.8823C142.525 32.9564 142.313 33.0782 142.134 33.2475C141.954 33.4169 141.805 33.6445 141.689 33.9303C141.583 34.2055 141.53 34.5548 141.53 34.9782V38.5508H139.418V30.7388H141.467V31.8979C141.583 31.6438 141.731 31.4374 141.911 31.2786C142.102 31.1093 142.298 30.9822 142.499 30.8976C142.71 30.8129 142.917 30.7547 143.118 30.7229C143.33 30.6912 143.52 30.6753 143.69 30.6753C143.774 30.6753 143.854 30.6806 143.928 30.6912C144.012 30.6912 144.097 30.6964 144.182 30.707V32.8347ZM149.099 36.8677C149.353 36.8677 149.602 36.8201 149.845 36.7248C150.089 36.6295 150.3 36.4919 150.48 36.312C150.66 36.1214 150.803 35.8886 150.909 35.6133C151.025 35.3381 151.084 35.0153 151.084 34.6448C151.084 34.2743 151.025 33.9514 150.909 33.6762C150.803 33.401 150.66 33.1734 150.48 32.9935C150.3 32.8029 150.089 32.66 149.845 32.5648C149.602 32.4695 149.353 32.4219 149.099 32.4219C148.845 32.4219 148.596 32.4695 148.353 32.5648C148.109 32.66 147.897 32.8029 147.717 32.9935C147.537 33.1734 147.389 33.401 147.273 33.6762C147.167 33.9514 147.114 34.2743 147.114 34.6448C147.114 35.0153 147.167 35.3381 147.273 35.6133C147.389 35.8886 147.537 36.1214 147.717 36.312C147.897 36.4919 148.109 36.6295 148.353 36.7248C148.596 36.8201 148.845 36.8677 149.099 36.8677ZM149.099 30.5006C149.681 30.5006 150.221 30.6065 150.718 30.8182C151.226 31.0193 151.66 31.3051 152.02 31.6756C152.391 32.0355 152.677 32.4695 152.878 32.9776C153.089 33.4857 153.195 34.0414 153.195 34.6448C153.195 35.2481 153.089 35.8039 152.878 36.312C152.677 36.8095 152.391 37.2435 152.02 37.614C151.66 37.9845 151.226 38.2756 150.718 38.4873C150.221 38.6884 149.681 38.789 149.099 38.789C148.517 38.789 147.971 38.6884 147.463 38.4873C146.966 38.2756 146.532 37.9845 146.161 37.614C145.801 37.2435 145.516 36.8095 145.304 36.312C145.103 35.8039 145.002 35.2481 145.002 34.6448C145.002 34.0414 145.103 33.4857 145.304 32.9776C145.516 32.4695 145.801 32.0355 146.161 31.6756C146.532 31.3051 146.966 31.0193 147.463 30.8182C147.971 30.6065 148.517 30.5006 149.099 30.5006ZM161.314 30.7388L162.997 35.7721L164.442 30.7388H166.537L164.092 38.5508H161.98L160.154 33.2158L158.36 38.5508H156.217L153.724 30.7388H155.947L157.392 35.7562L159.091 30.7388H161.314ZM169.968 38.5508H167.856V30.7388H169.904V31.7073C170.148 31.3051 170.476 31.0087 170.889 30.8182C171.312 30.6276 171.736 30.5324 172.159 30.5324C172.646 30.5324 173.064 30.6171 173.414 30.7864C173.773 30.9452 174.07 31.1622 174.303 31.4374C174.536 31.7126 174.705 32.0408 174.811 32.4219C174.927 32.8029 174.985 33.2052 174.985 33.6286V38.5508H172.874V33.9938C172.874 33.5492 172.757 33.1787 172.524 32.8823C172.302 32.5859 171.937 32.4377 171.429 32.4377C170.963 32.4377 170.603 32.5965 170.349 32.9141C170.095 33.2211 169.968 33.6021 169.968 34.0573V38.5508Z" fill="white"/>
<path d="M22.2627 59.9687C22.2627 59.2379 22.8551 58.6455 23.5859 58.6455H47.4029C48.1337 58.6455 48.7261 59.2379 48.7261 59.9687V74.6554H22.2627V59.9687Z" fill="white"/>
<path opacity="0.4" d="M50.0488 59.9687C50.0488 59.2379 50.6412 58.6455 51.372 58.6455H75.1891C75.9198 58.6455 76.5122 59.2379 76.5122 59.9687V73.862H50.0488V59.9687Z" fill="white"/>
<path opacity="0.4" d="M77.8359 59.9687C77.8359 59.2379 78.4283 58.6455 79.1591 58.6455H102.976C103.707 58.6455 104.299 59.2379 104.299 59.9687V73.862H77.8359V59.9687Z" fill="white"/>
<path opacity="0.4" d="M105.622 59.9687C105.622 59.2379 106.214 58.6455 106.945 58.6455H130.762C131.493 58.6455 132.085 59.2379 132.085 59.9687V73.862H105.622V59.9687Z" fill="white"/>
<path opacity="0.4" d="M133.409 59.9687C133.409 59.2379 134.002 58.6455 134.732 58.6455H158.549C159.28 58.6455 159.873 59.2379 159.873 59.9687V73.862H133.409V59.9687Z" fill="white"/>
<path d="M22.2627 74.6553H220.738V109.058C220.738 109.788 220.146 110.381 219.415 110.381H23.5859C22.8551 110.381 22.2627 109.788 22.2627 109.058V74.6553Z" fill="white"/>
<rect x="32.8477" y="85.2407" width="177.305" height="7.93902" rx="1.32317" fill="#F0F3F5"/>
<rect x="32.8477" y="95.8262" width="86.006" height="3.96951" rx="1.32317" fill="#F0F3F5"/>
<path d="M22.2627 116.997C22.2627 116.266 22.8551 115.674 23.5859 115.674H161.196C161.926 115.674 162.519 116.266 162.519 116.997V165.954C162.519 166.685 161.926 167.277 161.196 167.277H23.5859C22.8551 167.277 22.2627 166.685 22.2627 165.954V116.997Z" fill="white"/>
<rect x="32.8477" y="126.259" width="26.4634" height="26.4634" rx="1.32317" fill="#F0F3F5"/>
<rect x="64.6045" y="126.259" width="55.818" height="3.96951" rx="1.32317" fill="#F0F3F5"/>
<rect x="64.6045" y="132.875" width="87.3292" height="7.93902" rx="1.32317" fill="#008672"/>
<rect x="64.6045" y="143.46" width="87.3292" height="5.29268" rx="1.32317" fill="#98A4AE"/>
<rect x="64.6045" y="151.399" width="76.0823" height="5.29268" rx="1.32317" fill="#98A4AE"/>
<path d="M22.2627 173.893C22.2627 173.163 22.8551 172.57 23.5859 172.57H161.196C161.926 172.57 162.519 173.163 162.519 173.893V218.881C162.519 219.612 161.926 220.204 161.196 220.204H23.5859C22.8551 220.204 22.2627 219.612 22.2627 218.881V173.893Z" fill="white"/>
<rect x="32.8477" y="183.156" width="26.4634" height="26.4634" rx="1.32317" fill="#F0F3F5"/>
<rect x="64.6045" y="183.156" width="55.818" height="3.96951" rx="1.32317" fill="#F0F3F5"/>
<rect x="64.6045" y="189.771" width="87.3292" height="7.93902" rx="1.32317" fill="#008672"/>
<rect x="64.6045" y="200.357" width="57.8794" height="5.29268" rx="1.32317" fill="#98A4AE"/>
<rect x="167.812" y="115.674" width="52.9268" height="104.53" rx="1.32317" fill="white"/>
<rect x="173.103" y="119.119" width="42.3414" height="2.64634" rx="1.32317" fill="#008672"/>
<path d="M161.206 145.567C161.206 148.512 163.594 150.9 166.539 150.9C169.485 150.9 171.872 148.512 171.872 145.567C171.872 142.621 169.485 140.234 166.539 140.234C163.594 140.234 161.206 142.621 161.206 145.567ZM268.192 146.274C268.583 145.883 268.583 145.25 268.192 144.86L261.828 138.496C261.438 138.105 260.805 138.105 260.414 138.496C260.024 138.886 260.024 139.52 260.414 139.91L266.071 145.567L260.414 151.224C260.024 151.614 260.024 152.247 260.414 152.638C260.805 153.028 261.438 153.028 261.828 152.638L268.192 146.274ZM166.539 146.567L267.485 146.567L267.485 144.567L166.539 144.567L166.539 146.567Z" fill="url(#paint0_linear_212_760)"/>
<defs>
<linearGradient id="paint0_linear_212_760" x1="166.539" y1="146.067" x2="267.485" y2="146.067" gradientUnits="userSpaceOnUse">
<stop stop-color="#008672"/>
<stop offset="0.555" stop-color="#FFC72C"/>
</linearGradient>
</defs>
</svg>
