<svg width="62" height="62" viewBox="0 0 62 62" fill="none" xmlns="http://www.w3.org/2000/svg">
<path d="M55.0316 10.3489H58.7524C59.9445 10.3489 60.9101 11.3144 60.9101 12.5065V45.7327C60.9101 48.7112 58.4951 51.1262 55.5166 51.1262H6.39348C3.41494 51.1262 1 48.7112 1 45.7327V12.5065C1 11.3144 1.96552 10.3489 3.15762 10.3489H6.87738M54.5887 42.4194H60.909M1 42.4194H38.7486M54.5887 38.1953V6.10994M7.32141 6.10994V38.1953L27.5951 38.3091M30.9539 38.1953V1M30.9539 1H13.4948C11.7107 1 10.2647 2.446 10.2647 4.23017V34.4243H27.3093C29.3223 34.4243 30.9539 36.0923 30.9539 38.1486M30.9539 1H48.4129C50.1971 1 51.6431 2.446 51.6431 4.23017V34.4243H49.1872M30.9539 38.1486V38.2055M30.9539 38.1486C30.9539 36.0923 32.5855 34.4243 34.5985 34.4243H38.7486M27.3924 6.10994H13.8273M27.3924 10.8579H13.8273M27.3924 20.3525H13.8273M27.3924 15.6058H13.8273M27.3924 25.1004H13.8273M27.3924 29.8472H13.8273M48.0815 6.10994H34.5164M48.0815 10.8579H34.5164M48.0815 20.3525H34.5164M48.0815 15.6058H34.5164M48.0815 25.1004H34.5164M48.0815 29.8472H34.5164M21.6244 61V59.2067C21.6244 57.7402 22.9463 56.5515 24.5779 56.5515H37.3312C38.9628 56.5515 40.2847 57.7402 40.2847 59.2067V61H21.6233H21.6244ZM29.3347 56.5515V51.1262H32.5763V56.5515H29.3347ZM51.1865 45.3479L48.9993 46.5844L46.1767 42.1917L44.0601 44.5998L42.8452 34.1203L51.3129 40.4121L48.1829 40.8493L51.1865 45.3479Z" stroke="#98A4AE" stroke-width="1.81428" stroke-linecap="round" stroke-linejoin="round"/>
</svg>
